<svg id="icons" xmlns="http://www.w3.org/2000/svg" viewBox="0 0 24 24"><defs><style>.cls-1{fill:none;}</style></defs><g id="arrow-return"><rect id="margin" class="cls-1" width="24" height="24"/><path id="icon" d="M3.33,11.21a1.11,1.11,0,0,0,0,1.58l4.12,4.12a1.12,1.12,0,0,0,.79.3A1.14,1.14,0,0,0,9,16.89a1.2,1.2,0,0,0,.33-.78A1.13,1.13,0,0,0,9,15.33l-2.2-2.21h13a1.14,1.14,0,0,0,.8-.33,1.11,1.11,0,0,0,0-1.58,1.14,1.14,0,0,0-.8-.33h-13L9,8.67a1.13,1.13,0,0,0,.31-.78A1.2,1.2,0,0,0,9,7.11a1.14,1.14,0,0,0-.78-.32,1.12,1.12,0,0,0-.79.3Z"/></g></svg>