<svg xmlns="http://www.w3.org/2000/svg" viewBox="0 0 24 24"><defs><style>.cls-1{fill:none;}</style></defs><g id="icons"><g id="bell"><rect id="margin" class="cls-1" width="24" height="24"/><path id="icon" d="M20.38,18v.91H4V18l1.82-1.82V10.74a6.35,6.35,0,0,1,4.54-6.1V4.37a1.82,1.82,0,0,1,3.64,0v.27a6.35,6.35,0,0,1,4.54,6.1v5.45L20.38,18M14,19.83a1.82,1.82,0,0,1-3.64,0M19.25,3.64,18,4.93a8.12,8.12,0,0,1,2.43,5.81H22.2a9.94,9.94,0,0,0-2.95-7.1m-17,7.1H4A8.12,8.12,0,0,1,6.45,4.93L5.15,3.64A9.94,9.94,0,0,0,2.2,10.74Z"/></g></g></svg>