<svg xmlns="http://www.w3.org/2000/svg" viewBox="0 0 24 24"><defs><style>.cls-1{fill:none;}</style></defs><g id="icons"><g id="borehole"><rect id="margin" class="cls-1" width="24" height="24"/><path id="icon" d="M12,2A10,10,0,1,0,22,12,10,10,0,0,0,12,2Zm0,18a8,8,0,1,1,8-8A8,8,0,0,1,12,20ZM16.49,9.37l-1.88,1.88M13.2,9.84,15.08,8M15,16.44,13.2,14.66M9.32,8,11.2,9.84M9.79,11.25,7.91,9.37M16.39,15,15.08,8m1.41,1.41M15.08,8l1.41,1.41M9.42,16.44,8,15m6.6-1.78L16.39,15,15,16.44,13.2,14.66h-2L9.42,16.44,8,15l1.78-1.78v-2L7.91,9.37,9.32,8,11.2,9.84h2L15.08,8l1.41,1.41-1.88,1.88ZM9.42,16.44,8,15M9.32,8,7.91,9.37m0,0M16.39,15,15,16.44,16.39,15,15,16.44"/></g></g></svg>