<svg xmlns="http://www.w3.org/2000/svg" viewBox="0 0 24 24"><defs><style>.cls-1{fill:none;}</style></defs><g id="icons"><g id="building-marker"><rect id="margin" class="cls-1" width="24" height="24"/><path id="icon" d="M13.6,20.05a10.25,10.25,0,0,1-2.07-5.21,5.25,5.25,0,0,1,2.27-4.26h-.38V8.68h1.9V9.85a5.32,5.32,0,0,1,1.42-.22,2.42,2.42,0,0,1,.47,0V3H4V20.05H9.63V16.74h1.9v3.31H13.6M13.42,4.89h1.9v1.9h-1.9V4.89M7.74,18.16H5.84v-1.9h1.9v1.9m0-3.79H5.84v-1.9h1.9v1.9m0-3.79H5.84V8.68h1.9v1.9m0-3.79H5.84V4.89h1.9v1.9m1.89-1.9h1.9v1.9H9.63V4.89m0,3.79h1.9v1.9H9.63V8.68m0,5.69v-1.9h1.9v1.9H9.63m7.11-2.84a3.36,3.36,0,0,0-3.32,3.31c0,2.47,3.32,6.16,3.32,6.16s3.31-3.69,3.31-6.16a3.35,3.35,0,0,0-3.31-3.31m0,4.55a1.14,1.14,0,1,1,0-2.27A1.21,1.21,0,0,1,17.87,15,1.08,1.08,0,0,1,16.74,16.08Z"/></g></g></svg>