<svg id="icons" xmlns="http://www.w3.org/2000/svg" viewBox="0 0 24 24"><defs><style>.cls-1{fill:none;}</style></defs><g id="cancel-circle-solid"><rect id="margin" class="cls-1" width="24" height="24"/><path id="icon" d="M12,2A10,10,0,0,1,22,12.28,10.13,10.13,0,0,1,12.28,22,10,10,0,1,1,12,2m2.89,5.7L12,10.59,9.11,7.7a1,1,0,0,0-1.4,0h0a1,1,0,0,0,0,1.42L10.59,12,7.71,14.88a1,1,0,0,0,0,1.42h0a1,1,0,0,0,1.4,0L12,13.41l2.88,2.88a1,1,0,0,0,1.42,0h0a1,1,0,0,0,0-1.4L13.41,12,16.3,9.11a1,1,0,0,0,0-1.4h0A1,1,0,0,0,14.89,7.7Z"/></g></svg>