<svg xmlns="http://www.w3.org/2000/svg" viewBox="0 0 24 24"><defs><style>.cls-1{fill:none;}</style></defs><g id="icons"><g id="chart-timeline-variant"><rect id="margin" class="cls-1" width="24" height="24"/><path id="icon" d="M3.82,13.82l.45.06L8.43,9.73A1.77,1.77,0,0,1,8.9,8a1.82,1.82,0,0,1,3,1.74l2.33,2.33.46-.06a1.09,1.09,0,0,1,.45.06l3.25-3.24a1,1,0,0,1-.07-.46,1.82,1.82,0,1,1,1.82,1.82,1.09,1.09,0,0,1-.45-.06l-3.25,3.24a1,1,0,0,1,.07.46,1.82,1.82,0,0,1-3.64,0l.06-.46L10.64,11a2.32,2.32,0,0,1-.91,0L5.57,15.18l.07.46a1.82,1.82,0,1,1-1.82-1.82Z"/></g></g></svg>