<svg xmlns="http://www.w3.org/2000/svg" xmlns:xlink="http://www.w3.org/1999/xlink" viewBox="0 0 24 24"><defs><style>.cls-1{fill:none;}.cls-2{clip-path:url(#clip-path);}</style><clipPath id="clip-path"><rect class="cls-1" x="2" y="2" width="20" height="20"/></clipPath></defs><g id="icons-draft"><g id="comments-soliid"><rect id="margin" class="cls-1" width="24" height="24"/><g id="icon"><g class="cls-2"><path d="M22,15.87c0-1.87-1.88-3.5-4-4.12-1.62,1.87-4.87,3-8,3H9.37a2.83,2.83,0,0,0-.12,1c0,2.5,2.75,4.5,6.25,4.5h.75A5.89,5.89,0,0,0,20.5,22a2.38,2.38,0,0,1-1-2.25C19.5,19,22,17.5,22,15.87Z"/><path d="M18.25,7.75c0-3.12-3.5-5.75-8-5.75S2,4.63,2,7.75c0,2.12,2.5,4,3.75,5a3.22,3.22,0,0,1-1.75,3A6.66,6.66,0,0,0,9.25,13.5h1C14.62,13.62,18.25,11,18.25,7.75Z"/></g></g></g></g></svg>