<svg xmlns="http://www.w3.org/2000/svg" viewBox="0 0 24 24"><defs><style>.cls-1{fill:none;}</style></defs><g id="icons"><g id="comment"><g id="margin"><rect class="cls-1" width="24" height="24"/></g><path id="icon" d="M22,11.38c0-4.49-4.48-8.13-10-8.13S2,6.89,2,11.38a7.19,7.19,0,0,0,2.07,4.93,10.18,10.18,0,0,1-1.81,2.86.94.94,0,0,0,.68,1.58,9.42,9.42,0,0,0,5.43-1.81h0A11.94,11.94,0,0,0,12,19.5C17.52,19.5,22,15.86,22,11.38ZM12,17.5A10.09,10.09,0,0,1,9,17L8,16.74l-.81.57a8.36,8.36,0,0,1-1.9,1A9,9,0,0,0,5.94,17l.44-1.17-.86-.91A5.27,5.27,0,0,1,4,11.38C4,8,7.59,5.25,12,5.25S20,8,20,11.38,16.41,17.5,12,17.5Z"/></g></g></svg>