<svg xmlns="http://www.w3.org/2000/svg" xmlns:xlink="http://www.w3.org/1999/xlink" viewBox="0 0 24 24"><defs><style>.cls-1{fill:none;}.cls-2{clip-path:url(#clip-path);}</style><clipPath id="clip-path"><rect class="cls-1" x="2" y="3.22" width="20" height="17.78"/></clipPath></defs><g id="icons"><g id="comments"><g id="margin"><rect class="cls-1" width="24" height="24"/></g><g id="icon"><g class="cls-2"><path d="M20.47,16.63A4.76,4.76,0,0,0,22,13.22c0-2.78-2.66-5.07-6.12-5.48A7.5,7.5,0,0,0,9.22,4.33C5.23,4.33,2,6.82,2,9.89A4.79,4.79,0,0,0,3.53,13.3a9.11,9.11,0,0,1-1.31,1.9.8.8,0,0,0-.15.87.78.78,0,0,0,.73.49,8,8,0,0,0,4.35-1.35c.32.07.65.13,1,.17a7.48,7.48,0,0,0,6.64,3.4,9.31,9.31,0,0,0,2.07-.24,8,8,0,0,0,4.35,1.35.81.81,0,0,0,.74-.49.82.82,0,0,0-.16-.87,8.8,8.8,0,0,1-1.31-1.9ZM6.83,13.43l-.59.38a7,7,0,0,1-1.5.75c.1-.17.19-.34.28-.52L5.56,13l-.86-.85a3.15,3.15,0,0,1-1-2.22C3.67,7.78,6.21,6,9.22,6s5.56,1.78,5.56,3.89-2.55,3.89-5.56,3.89a7.52,7.52,0,0,1-1.7-.2Zm12.47,2-.86.85L19,17.37c.09.18.19.35.28.52a7,7,0,0,1-1.5-.75l-.59-.38-.69.16a7.51,7.51,0,0,1-1.7.19,6.48,6.48,0,0,1-4.56-1.72c3.52-.38,6.22-2.69,6.22-5.5,0-.12,0-.23,0-.35,2.24.51,3.91,2,3.91,3.68A3.15,3.15,0,0,1,19.3,15.44Z"/></g></g></g></g></svg>