<svg xmlns="http://www.w3.org/2000/svg" viewBox="0 0 24 24"><defs><style>.cls-1{fill:none;}</style></defs><g id="icons"><g id="configurations"><rect id="margin" class="cls-1" width="24" height="24"/><path id="icon" d="M15.23,17.67a2.34,2.34,0,1,0-2.33-2.34,2.33,2.33,0,0,0,2.33,2.34M20.18,16l1.41,1.11a.32.32,0,0,1,.08.42l-1.34,2.31a.32.32,0,0,1-.4.14l-1.66-.66a5.27,5.27,0,0,1-1.13.65l-.25,1.76a.33.33,0,0,1-.33.29H13.9a.34.34,0,0,1-.34-.29L13.32,20a5,5,0,0,1-1.13-.65L10.53,20a.32.32,0,0,1-.4-.14L8.79,17.51a.32.32,0,0,1,.08-.42L10.28,16l0-.65,0-.65-1.41-1.1a.34.34,0,0,1-.08-.43l1.34-2.3a.31.31,0,0,1,.4-.15l1.66.67a4.71,4.71,0,0,1,1.13-.66l.24-1.77a.35.35,0,0,1,.34-.27h2.66a.33.33,0,0,1,.33.27l.25,1.77a4.92,4.92,0,0,1,1.13.66l1.66-.67a.31.31,0,0,1,.4.15l1.34,2.3a.34.34,0,0,1-.08.43l-1.41,1.1.05.65-.05.65M6.46,7.78a1.5,1.5,0,0,0,0-3,1.5,1.5,0,1,0,0,3M9.64,6.7l.92.71a.22.22,0,0,1,0,.28L9.73,9.17a.2.2,0,0,1-.25.1L8.41,8.84l-.7.42-.18,1.13a.21.21,0,0,1-.21.18H5.6a.22.22,0,0,1-.22-.18L5.23,9.26l-.72-.42-1.09.43a.21.21,0,0,1-.25-.1L2.32,7.69a.23.23,0,0,1,0-.28l.91-.71,0-.41,0-.42-.91-.71a.21.21,0,0,1,0-.27L3.17,3.4a.21.21,0,0,1,.25-.1l1.08.43.73-.42.15-1.13A.23.23,0,0,1,5.6,2H7.32a.22.22,0,0,1,.21.18l.18,1.13.7.42L9.48,3.3a.2.2,0,0,1,.25.1l.86,1.49a.21.21,0,0,1,0,.27l-.92.71,0,.42Z"/></g></g></svg>