<svg xmlns="http://www.w3.org/2000/svg" viewBox="0 0 24 24"><defs><style>.cls-1{fill:none;}</style></defs><g id="icons"><g id="connect"><rect id="margin" class="cls-1" width="24" height="24"/><path id="icon" d="M20.87,7.8a1.83,1.83,0,0,1,0,2.64l-2.64,2.64L10.87,5.73l2.64-2.65a1.83,1.83,0,0,1,2.64,0l1.7,1.7L20.68,2,22,3.27,19.17,6.1l1.7,1.7M15.4,13.27,14.08,12l-2.65,2.64-2-2L12.09,10,10.77,8.65,8.13,11.29,6.72,10,4.08,12.61a1.81,1.81,0,0,0,0,2.64L5.77,17,2,20.73l1.32,1.32,3.77-3.78L8.79,20a1.81,1.81,0,0,0,2.64,0l2.65-2.64L12.75,16Z"/></g></g></svg>