<svg xmlns="http://www.w3.org/2000/svg" viewBox="0 0 24 24"><defs><style>.cls-1{fill:none;}</style></defs><g id="icons"><g id="database-add"><rect id="margin" class="cls-1" width="24" height="24"/><path id="icon" d="M16.5,13.5h2v3h3v2h-3v3h-2v-3h-3v-2h3v-3m-6-11c4.42,0,8,1.79,8,4s-3.58,4-8,4-8-1.79-8-4,3.58-4,8-4m-8,6c0,2.21,3.58,4,8,4s8-1.79,8-4h0v3.08l-1-.08a6,6,0,0,0-5.64,3.94l-1.36.06c-4.42,0-8-1.79-8-4v-3m0,5c0,2.21,3.58,4,8,4h1a5.93,5.93,0,0,0,.75,2.9l-1.75.1c-4.42,0-8-1.79-8-4Z"/></g></g></svg>