<svg xmlns="http://www.w3.org/2000/svg" viewBox="0 0 24 24"><defs><style>.cls-1{fill:none;}</style></defs><g id="icons"><g id="database-arrow-down"><rect id="margin" class="cls-1" width="24" height="24"/><path id="icon" d="M18,12a6,6,0,0,0-5.12,2.89A16.25,16.25,0,0,1,11,15c-4.42,0-8-1.79-8-4V8c0,2.21,3.58,4,8,4s8-1.79,8-4v3a2.23,2.23,0,0,1-.28,1.05A3.4,3.4,0,0,0,18,12m-7-2c4.42,0,8-1.79,8-4s-3.58-4-8-4S3,3.79,3,6s3.58,4,8,4m1.1,7A10,10,0,0,1,11,17c-4.42,0-8-1.79-8-4v3c0,2.21,3.58,4,8,4a9.65,9.65,0,0,0,1.33-.06,5.72,5.72,0,0,1-.23-3M19,19V15H17v4H15l3,3,3-3Z"/></g></g></svg>