<svg xmlns="http://www.w3.org/2000/svg" viewBox="0 0 24 24"><defs><style>.cls-1{fill:none;}</style></defs><g id="icons"><g id="database-search"><rect id="margin" class="cls-1" width="24" height="24"/><path id="icon" d="M17.38,12.15A4.41,4.41,0,1,0,16.61,19l3.05,3L21,20.66l-3-3.05a4.38,4.38,0,0,0-.61-5.46M16,17a2.45,2.45,0,1,1,0-3.47A2.46,2.46,0,0,1,16,17M9.76,19.77A6.26,6.26,0,0,1,8.31,17.5C5.22,17,3,15.52,3,13.8v2.94c0,2.16,3.51,3.92,7.84,3.92h0a6.16,6.16,0,0,1-1.08-.89M3,8.9v2.94c0,1.64,2,3.06,4.9,3.62v-.19a6.46,6.46,0,0,1,.57-2.64C5.29,12.13,3,10.65,3,8.9M10.84,3C6.51,3,3,4.77,3,6.94c0,2,2.94,3.6,6.71,3.92h0a6.24,6.24,0,0,1,7.1-1.41,3.17,3.17,0,0,0,1.82-2.51C18.68,4.77,15.17,3,10.84,3Z"/></g></g></svg>