<svg xmlns="http://www.w3.org/2000/svg" viewBox="0 0 24 24"><defs><style>.cls-1{fill:none;}</style></defs><g id="icons"><g id="database-arrow-left"><rect id="margin" class="cls-1" width="24" height="24"/><path id="icon" d="M3,6.5c0-2.21,3.58-4,8-4s8,1.79,8,4-3.58,4-8,4-8-1.79-8-4m15.72,6.05A2.23,2.23,0,0,0,19,11.5v-3c0,2.21-3.58,4-8,4s-8-1.79-8-4v3c0,2.21,3.58,4,8,4a16.25,16.25,0,0,0,1.88-.11A6,6,0,0,1,18,12.5a3.4,3.4,0,0,1,.72.05M12.1,17.46a10,10,0,0,1-1.1,0c-4.42,0-8-1.79-8-4v3c0,2.21,3.58,4,8,4a9.65,9.65,0,0,0,1.33-.06,5.72,5.72,0,0,1-.23-3m4.9,0v-2l-3,3,3,3v-2h4v-2Z"/></g></g></svg>