<svg xmlns="http://www.w3.org/2000/svg" viewBox="0 0 24 24"><defs><style>.cls-1{fill:none;}</style></defs><g id="icons"><g id="database-arrow-right"><rect id="margin" class="cls-1" width="24" height="24"/><path id="icon" d="M3,5.93c0-2.21,3.58-4,8-4s8,1.79,8,4-3.58,4-8,4-8-1.79-8-4M18.72,12A2.23,2.23,0,0,0,19,10.93v-3c0,2.21-3.58,4-8,4s-8-1.79-8-4v3c0,2.21,3.58,4,8,4a16.25,16.25,0,0,0,1.88-.11A6,6,0,0,1,18,11.93a3.4,3.4,0,0,1,.72.05M12.1,16.89a10,10,0,0,1-1.1,0c-4.42,0-8-1.79-8-4v3c0,2.21,3.58,4,8,4a9.65,9.65,0,0,0,1.33-.06,5.72,5.72,0,0,1-.23-3m9.9,1-3-3v2H15v2h4v2Z"/></g></g></svg>