<svg xmlns="http://www.w3.org/2000/svg" viewBox="0 0 24 24"><defs><style>.cls-1{fill:none;}</style></defs><g id="icons"><g id="design"><rect id="margin" class="cls-1" width="24" height="24"/><path id="icon" d="M3.52,17v3.53H7.05L17.48,10.05,13.94,6.51,3.52,17M22,18l-4,4-4.9-4.9,1.67-1.67.94.94L18,14l1.34,1.33L18,16.71l1,.95,1.34-1.32L22,18M6.92,10.9,2,6,6,2,7.66,3.67,5.34,6l1,1L8.66,4.67,10,6,8.66,7.33l.95.95L6.92,10.9M20.21,7.29a.94.94,0,0,0,0-1.33L18,3.79a.94.94,0,0,0-1.33,0L14.94,5.52l3.54,3.53Z"/></g></g></svg>