<svg xmlns="http://www.w3.org/2000/svg" viewBox="0 0 24 24"><defs><style>.cls-1{fill:none;}</style></defs><g id="icons"><g id="formrun-large"><rect id="margin" class="cls-1" width="24" height="24"/><path id="icon" d="M10.38,7.33H3.52V18H2V5.81h8.38Zm7.62,0V5.81H13.43V4.29a.76.76,0,0,1,.76-.77h1.52V2h-1.9c-.38,0-1.14.34-1.14.76,0-.42-.73-.76-1.15-.76H9.62V3.52h1.52a.76.76,0,0,1,.76.77V15a.76.76,0,0,1-.76.76H9.62v1.53h1.9c.42,0,1.15-.34,1.15-.76,0,.42.72.76,1.14.76h1.9V15.71H14.19a.76.76,0,0,1-.76-.76V7.33ZM18,16V22l4-3Z"/></g></g></svg>