<svg xmlns="http://www.w3.org/2000/svg" viewBox="0 0 24 24"><defs><style>.cls-1{fill:none;}</style></defs><g id="icons"><g id="formrun-small"><rect id="margin" class="cls-1" width="24" height="24"/><path id="icon" d="M13.4,5.8h3.8v7.6H13.4v1.52a.76.76,0,0,0,.76.76h1.52V17.2h-1.9c-.42,0-1.14-.34-1.14-.76,0,.42-.72.76-1.14.76H9.6V15.68h1.52a.76.76,0,0,0,.76-.76V4.28a.76.76,0,0,0-.76-.76H9.6V2h1.9c.42,0,1.14.34,1.14.76,0-.42.72-.76,1.14-.76h1.9V3.52H14.16a.76.76,0,0,0-.76.76V5.8M2,5.8h8.36V7.32H3.52v4.56h6.84V13.4H2V5.8m13.68,6.08V7.32H13.4v4.56ZM18,16V22l4-3Z"/></g></g></svg>