<svg xmlns="http://www.w3.org/2000/svg" viewBox="0 0 24 24"><defs><style>.cls-1{fill:none;}</style></defs><g id="icons"><g id="logo-geodata"><rect id="margin" class="cls-1" width="24" height="24"/><path id="icon" d="M21.27,20.65H2.76l.06,0,2.23-1.3,1.88-1.09c.31-.17.61-.36.93-.53l1-.5a8.72,8.72,0,0,1,1.06-.43,8,8,0,0,1,1.38-.36,4.41,4.41,0,0,1,1,0,6.46,6.46,0,0,1,1.15.21,12.15,12.15,0,0,1,1.56.58A14.26,14.26,0,0,1,16.6,18c.57.32,1.14.66,1.71,1l1,.56,1.88,1.07Zm-10-17.3L2,19.38l0,0,1.36-.78c.47-.26.93-.53,1.39-.8L6.23,17a18.08,18.08,0,0,0,1.91-1.21,11.1,11.1,0,0,0,1.24-1,6.66,6.66,0,0,0,.71-.8,4.36,4.36,0,0,0,.66-1.33,9.44,9.44,0,0,0,.38-1.83c0-.38.07-.75.1-1.12s0-.64,0-1,0-.37,0-.56c0-.47,0-.95,0-1.43,0-.86,0-1.72,0-2.58V3.36Zm1.5,0c0,.32,0,.64,0,.95,0,.68,0,1.36,0,2v2c0,.52,0,1,0,1.55,0,.2,0,.39,0,.59s.08.61.13.92a8,8,0,0,0,.4,1.51,3.92,3.92,0,0,0,.55,1,6.86,6.86,0,0,0,.8.9c.28.25.56.5.86.72s.66.48,1,.71.54.34.82.5l.9.51c.59.34,1.18.69,1.77,1s1,.58,1.51.87l.41.23h0l-9.24-16Z"/></g></g></svg>