<svg xmlns="http://www.w3.org/2000/svg" viewBox="0 0 24 24"><defs><style>.cls-1{fill:none;}</style></defs><g id="icons"><g id="geometry"><rect id="margin" class="cls-1" width="24" height="24"/><path id="icon" d="M11,2h2V4h.51A1.52,1.52,0,0,1,15,5.55V9.1l-.44.45,1.66,2.88a6.06,6.06,0,0,0,1.83-4.34h2a8.07,8.07,0,0,1-2.81,6.14l3.19,5.52L20.62,22l-1.9-1.24-3.11-5.4a8.18,8.18,0,0,1-7.22,0l-3.11,5.4L3.38,22l.13-2.25L9.4,9.55,9,9.1V5.55A1.52,1.52,0,0,1,10.48,4H11V2M9.4,13.59a6.12,6.12,0,0,0,5.2,0L13.12,11h0a1.59,1.59,0,0,1-2.22,0h0L9.4,13.59M12,6.06a1,1,0,1,0,1,1A1,1,0,0,0,12,6.06Z"/></g></g></svg>