<svg xmlns="http://www.w3.org/2000/svg" viewBox="0 0 24 24"><defs><style>.cls-1{fill:none;}</style></defs><g id="icons"><g id="grid-select"><rect id="margin" class="cls-1" width="24" height="24"/><path id="icon" d="M3.5,6h-1V5h1Zm0,5h-1v1h1Zm1,10h1V20h-1Zm6-2h3V16h-3Zm-8-1h1V17h-1Zm4,3h1V20h-1Zm4,0h1V20h-1Zm2,0h1V20h-1Zm-8-2h3V16h-3Zm-2,1v1h1V19h-1Zm1-17V2h-1V4h1Zm10-1h-1V3h1Zm4,0h-1V3h1Zm-6,0h-1V3h1Zm8,2h-3V7h3Zm-6,0h-3V7h3Zm-6,0h-3V7h3Zm-2-2h-1V3h1Zm2,0h-1V3h1Zm12,0h-1V3h1Zm1,6h1V7h-1Zm-5,0h5V9h-5v5h5v1h-5v6h-1V15h-5v6h-1V15h-5V14h5V9h-5V8h5V2h1V8h5V2h1V8Zm-1,1h-5v5h5Zm-1,1h-3v3h3Zm-11,0h1V9h-1Zm0-3V8h1V7Zm2,3v3h3V10Zm16-4h1V5h-1Zm0-4V4h1V2Zm-1,11V10h-3v3Zm-3,8h1V20h-1Zm-14-8v1h1V13Zm18,7v1h1V19h-1Zm-4-1h3V16h-3Zm-14-3h1V15h-1Zm16,5h1V20h-1Zm2-3h1V17h-1Zm1-5h-1v1h1Zm0,3V15h-1v1Zm-1-4h1V11h-1Zm1-2V9h-1v1Z"/></g></g></svg>