<svg xmlns="http://www.w3.org/2000/svg" viewBox="0 0 24 24"><defs><style>.cls-1{fill:none;}</style></defs><g id="icons-draft"><g id="hashtag"><rect id="margin" class="cls-1" width="24" height="24"/><g id="icon"><rect id="margin-2" data-name="margin" class="cls-1" width="24" height="24"/><rect id="margin-3" data-name="margin" class="cls-1" width="24" height="24"/><path d="M13,9.77a.86.86,0,0,0-.87-.87H5.61a2.06,2.06,0,0,0-1.48.61L2.26,11.39a.85.85,0,0,0,0,1.23l.94.94h0c.32.32.64.65,1,1a2,2,0,0,0,1.41.57h6.56a1,1,0,0,0,.34-.06.84.84,0,0,0,.52-.8C13,12.75,13,11.26,13,9.77ZM5.18,12.59a.83.83,0,0,1-1.18,0,.84.84,0,0,1,0-1.18.83.83,0,1,1,1.17,1.18Zm5.57-1.09h-.5v1h.5V13h-.5v.5h-.5V13h-1v.5h-.5V13h-.5v-.5h.5v-1h-.5V11h.5v-.5h.5V11h1v-.5h.5V11h.5Zm-2,0h1v1h-1ZM15.1,9.6l3,3,3-3,.9.9-3.9,3.9-3.9-3.9Z"/></g></g></g></svg>