<svg xmlns="http://www.w3.org/2000/svg" viewBox="0 0 24 24"><defs><style>.cls-1{fill:none;}</style></defs><g id="icons"><g id="layout"><rect id="margin" class="cls-1" width="24" height="24"/><path id="icon" d="M21,18.39,21,18l0-.39.86-.66a.21.21,0,0,0,0-.26l-.8-1.38a.18.18,0,0,0-.24-.09l-1,.4-.65-.39L19,14.17a.2.2,0,0,0-.2-.17H17.2a.2.2,0,0,0-.2.17l-.14,1.06-.69.39-1-.4a.18.18,0,0,0-.23.09l-.8,1.38a.2.2,0,0,0,0,.26l.84.66L15,18l0,.39-.84.66a.2.2,0,0,0,0,.26l.8,1.38a.18.18,0,0,0,.23.09l1-.4.68.39L17,21.83a.2.2,0,0,0,.2.17h1.6a.2.2,0,0,0,.2-.17l.17-1.06.65-.39,1,.4a.18.18,0,0,0,.24-.09l.8-1.38a.21.21,0,0,0,0-.26Zm-3,1A1.4,1.4,0,1,1,19.4,18,1.4,1.4,0,0,1,18,19.4ZM22,8H2V3A1,1,0,0,1,3,2H21a1,1,0,0,1,1,1ZM8,22H3a1,1,0,0,1-1-1V9H8Zm5.54,0H9V9H22v4.54A5.93,5.93,0,0,0,18,12a6,6,0,0,0-6,6A5.93,5.93,0,0,0,13.54,22Z"/></g></g></svg>