<svg xmlns="http://www.w3.org/2000/svg" viewBox="0 0 24 24"><defs><style>.cls-1{fill:none;}</style></defs><g id="icons-draft"><g id="LHtag"><rect id="margin" class="cls-1" width="24" height="24"/><rect x="16.25" y="11.47" width="1.05" height="1.05"/><path d="M22,8a1.56,1.56,0,0,0-1.58-1.58H8.57A3.81,3.81,0,0,0,5.88,7.49C4.73,8.61,3.61,9.76,2.47,10.88a1.58,1.58,0,0,0,0,2.25c.59.55,1.15,1.14,1.72,1.71h0c.58.58,1.15,1.18,1.75,1.74a3.75,3.75,0,0,0,2.58,1c2,0,4,0,6.05,0s3.91,0,5.87,0a1.61,1.61,0,0,0,.61-.11A1.5,1.5,0,0,0,22,16.07C22,13.36,22,10.65,22,8ZM7.78,13.08a1.51,1.51,0,1,1,0-2.14A1.51,1.51,0,0,1,7.78,13.08Zm5.81.81H11.26V10.11h1v2.82h1.33ZM19,11.47h-.63v1.06H19v.92h-.63v.63h-1v-.63H16.25v.63h-1v-.63H14.6v-.92h.63V11.47H14.6v-.92h.63V9.92h1v.63H17.3V9.92h1v.63H19Z"/></g></g></svg>