<svg xmlns="http://www.w3.org/2000/svg" viewBox="0 0 24 24"><defs><style>.cls-1{fill:none;}</style></defs><g id="icons"><g id="monitor-point-list"><rect id="margin" class="cls-1" width="24" height="24"/><path id="icon" d="M11.3,11H8.7a.7.7,0,0,1-.7-.7V7.7A.7.7,0,0,1,8.7,7h2.6a.7.7,0,0,1,.7.7v2.6A.7.7,0,0,1,11.3,11Zm0,6H8.7a.7.7,0,0,1-.7-.7V13.7a.7.7,0,0,1,.7-.7h2.6a.7.7,0,0,1,.7.7v2.6A.7.7,0,0,1,11.3,17Zm6,0H14.7a.7.7,0,0,1-.7-.7V13.7a.7.7,0,0,1,.7-.7h2.6a.7.7,0,0,1,.7.7v2.6A.7.7,0,0,1,17.3,17ZM20.75,2H3.25A1.25,1.25,0,0,0,2,3.25v17.5A1.25,1.25,0,0,0,3.25,22h17.5A1.25,1.25,0,0,0,22,20.75V3.25A1.25,1.25,0,0,0,20.75,2ZM3.5,20.5V3.5h17v17Z"/></g></g></svg>