<svg xmlns="http://www.w3.org/2000/svg" viewBox="0 0 24 24"><defs><style>.cls-1{fill:none;}</style></defs><g id="icons"><g id="monitoring-dashboard"><rect id="margin" class="cls-1" width="24" height="24"/><path id="icon" d="M18.36,13.82H14.73V9.27h3.63Zm0-7.27H14.73V8.36h3.63Zm-8.18,7.27h3.64V12H10.18ZM22,4.73V15.64a1.81,1.81,0,0,1-1.82,1.81H13.82v1.82h1.82v1.82H8.36V19.27h1.82V17.45H3.82A1.81,1.81,0,0,1,2,15.64V4.73A1.81,1.81,0,0,1,3.82,2.91H20.18A1.81,1.81,0,0,1,22,4.73Zm-1.82,0H3.82V15.64H20.18ZM13.82,6.55H5.64v4.54h8.18ZM9.27,12H5.64v1.82H9.27Z"/></g></g></svg>