<svg xmlns="http://www.w3.org/2000/svg" viewBox="0 0 24 24"><defs><style>.cls-1{fill:none;}</style></defs><g id="icons"><g id="monitor-point-group"><rect id="margin" class="cls-1" width="24" height="24"/><path id="icon" d="M9.2,15.5H6.1a.7.7,0,0,1-.7-.7v-.1a.7.7,0,0,1,.7-.7H9.2a.7.7,0,0,1,.7.7v.1A.7.7,0,0,1,9.2,15.5Zm0,3H6.1a.7.7,0,0,1-.7-.7v-.1a.7.7,0,0,1,.7-.7H9.2a.7.7,0,0,1,.7.7v.1A.7.7,0,0,1,9.2,18.5Zm0-6H6.12a.7.7,0,0,1-.7-.7v-.1a.7.7,0,0,1,.7-.7h3.1a.7.7,0,0,1,.7.7v.1A.7.7,0,0,1,9.22,12.5Zm0-3H6.15a.7.7,0,0,1-.7-.7V8.7a.7.7,0,0,1,.7-.7h3.1a.7.7,0,0,1,.7.7v.1A.7.7,0,0,1,9.25,9.5Zm0-3H6.17a.7.7,0,0,1-.7-.7V5.7a.7.7,0,0,1,.7-.7h3.1a.7.7,0,0,1,.7.7v.1A.7.7,0,0,1,9.27,6.5Zm8.28,4.67h-1.1a.7.7,0,0,1-.7-.7V9.37a.7.7,0,0,1,.7-.7h1.1a.7.7,0,0,1,.7.7v1.1A.7.7,0,0,1,17.55,11.17Zm0-3.67h-1.1a.7.7,0,0,1-.7-.7V5.7a.7.7,0,0,1,.7-.7h1.1a.7.7,0,0,1,.7.7V6.8A.7.7,0,0,1,17.55,7.5Zm0,7.33h-1.1a.7.7,0,0,1-.7-.7V13a.7.7,0,0,1,.7-.7h1.1a.7.7,0,0,1,.7.7v1.1A.7.7,0,0,1,17.55,14.83Zm0,3.67h-1.1a.7.7,0,0,1-.7-.7V16.7a.7.7,0,0,1,.7-.7h1.1a.7.7,0,0,1,.7.7v1.1A.7.7,0,0,1,17.55,18.5ZM20.75,2H3.25A1.25,1.25,0,0,0,2,3.25v17.5A1.25,1.25,0,0,0,3.25,22h17.5A1.25,1.25,0,0,0,22,20.75V3.25A1.25,1.25,0,0,0,20.75,2ZM3.5,20.5V3.5H12v17Zm17,0h-7V3.5h7Z"/></g></g></svg>