<svg xmlns="http://www.w3.org/2000/svg" viewBox="0 0 24 24"><defs><style>.cls-1{fill:none;}.cls-2{fill-rule:evenodd;}</style></defs><g id="icons"><rect id="margin" class="cls-1" width="24" height="24"/><g id="move-LB"><rect id="margin-2" data-name="margin" class="cls-1" width="24" height="24"/><path id="icon" class="cls-2" d="M11.65,4.15A.36.36,0,0,1,11.81,4a.47.47,0,0,1,.38,0,.36.36,0,0,1,.16.11l2,2a.36.36,0,0,1,.11.16.47.47,0,0,1,0,.38.53.53,0,0,1-.27.27.47.47,0,0,1-.38,0,.36.36,0,0,1-.16-.11L12.5,5.71V9.5a.5.5,0,0,1-1,0V5.71L10.35,6.85a.5.5,0,1,1-.7-.7l2-2ZM12,14a.51.51,0,0,1,.5.5v3.79l1.15-1.14a.5.5,0,1,1,.7.7l-2,2a.36.36,0,0,1-.16.11.47.47,0,0,1-.38,0,.36.36,0,0,1-.16-.11l-2-2a.36.36,0,0,1-.11-.16.47.47,0,0,1,0-.38.36.36,0,0,1,.11-.16A.47.47,0,0,1,10,17a.41.41,0,0,1,.19,0,.36.36,0,0,1,.16.11l1.15,1.14V14.5A.51.51,0,0,1,12,14ZM4.15,12.35A.36.36,0,0,1,4,12.19a.47.47,0,0,1,0-.38.36.36,0,0,1,.11-.16l2-2a.5.5,0,1,1,.7.7L5.71,11.5H9.5a.5.5,0,0,1,0,1H5.71l1.14,1.15a.5.5,0,1,1-.7.7l-2-2ZM14,12a.51.51,0,0,1,.5-.5h3.79l-1.14-1.15a.36.36,0,0,1-.11-.16.47.47,0,0,1,0-.38.36.36,0,0,1,.11-.16.47.47,0,0,1,.35-.15.41.41,0,0,1,.19,0,.36.36,0,0,1,.16.11l2,2a.36.36,0,0,1,.11.16.47.47,0,0,1,0,.38.36.36,0,0,1-.11.16l-2,2a.36.36,0,0,1-.16.11.47.47,0,0,1-.38,0,.53.53,0,0,1-.27-.27.47.47,0,0,1,0-.38.36.36,0,0,1,.11-.16l1.14-1.15H14.5A.51.51,0,0,1,14,12Z"/></g></g></svg>