<svg xmlns="http://www.w3.org/2000/svg" viewBox="0 0 24 24"><defs><style>.cls-1{fill:none;}</style></defs><g id="icons"><g id="sensorwaterproperty"><rect id="margin" class="cls-1" width="24" height="24"/><path id="icon" d="M17,14.38a7.42,7.42,0,0,0-.28-1.84s0-.11,0-.16h0c-.05-.18-.1-.36-.16-.54h0a3.4,3.4,0,0,0-.12-.34h0l-.21-.58h0c-.05-.1-.09-.2-.14-.31h0c-.08-.21-.17-.41-.27-.62h0l-.12-.26h0c-.12-.27-.25-.53-.38-.79l0-.07h0c-.13-.25-.26-.5-.4-.75h0l0-.07C14.18,6.91,13.55,5.9,13,5.13l0,0-.45-.67h0L12,3.62S7,10.38,7,14.38a6.89,6.89,0,0,0,.66,3l.09.17c.08.16.17.31.26.46l.09.14a5.17,5.17,0,0,0,.39.53l.08.08a4.44,4.44,0,0,0,.37.38l.14.13.41.32.1.07a5.54,5.54,0,0,0,.53.3l.15.07.44.17.17,0a4.11,4.11,0,0,0,.61.12,4.38,4.38,0,0,0,.51,0,4.2,4.2,0,0,0,.62-.06h.05a4.36,4.36,0,0,0,1.85-.76h0a5.92,5.92,0,0,0,2.25-3.38h0a4.89,4.89,0,0,0,.15-.78h0l0-.19h0A7.37,7.37,0,0,0,17,14.38Zm-3.23,3.18a2.49,2.49,0,0,1-1.77.82c-1.63,0-3-1.84-3-4,0-1.77,1.5-4.76,3-7.18.46.74.91,1.54,1.33,2.33A15.34,15.34,0,0,0,12,14.2,3.83,3.83,0,0,0,13.77,17.56Z"/></g></g></svg>