<svg xmlns="http://www.w3.org/2000/svg" viewBox="0 0 24 24"><defs><style>.cls-1{fill:none;}</style></defs><g id="icons"><g id="mpt-waterproperty"><rect id="margin" class="cls-1" width="24" height="24"/><path id="icon" d="M16.9,11A5,5,0,0,0,13,7.1V2H11V7.1A5,5,0,0,0,7.1,11H2v2H7.1A5,5,0,0,0,11,16.9V22h2V16.9A5,5,0,0,0,16.9,13H22V11Zm-2.08,2A3,3,0,0,1,13,14.82a2.87,2.87,0,0,1-2,0A3,3,0,0,1,9.18,13a2.87,2.87,0,0,1,0-2A3,3,0,0,1,11,9.18a2.87,2.87,0,0,1,2,0A3,3,0,0,1,14.82,11a2.87,2.87,0,0,1,0,2Z"/></g></g></svg>