<svg xmlns="http://www.w3.org/2000/svg" viewBox="0 0 24 24"><defs><style>.cls-1{fill:none;}</style></defs><g id="icons"><g id="mpt-inclinometer"><rect id="margin" class="cls-1" width="24" height="24"/><path id="icon" d="M20.79,7.24a9.94,9.94,0,0,0-4-4A10.05,10.05,0,0,0,12,2.06,10.1,10.1,0,0,0,7.22,3.21,10.62,10.62,0,0,0,4.93,4.93a10.51,10.51,0,0,0-1.72,2.3,10.47,10.47,0,0,0,0,9.56,10.08,10.08,0,0,0,4,4A10,10,0,0,0,12,21.94a10.06,10.06,0,0,0,4.77-1.15,10.51,10.51,0,0,0,2.3-1.72,10.62,10.62,0,0,0,1.72-2.29A10.46,10.46,0,0,0,20.79,7.24Zm-3.13-.9A8.68,8.68,0,0,1,19,8.19,7.81,7.81,0,0,1,19.89,11H13V4.12A7.56,7.56,0,0,1,15.81,5,8.68,8.68,0,0,1,17.66,6.34ZM5,8.18A8.73,8.73,0,0,1,6.34,6.34,9.11,9.11,0,0,1,8.18,5,7.8,7.8,0,0,1,11,4.12V11H4.11A7.72,7.72,0,0,1,5,8.18Zm1.37,9.48A8.56,8.56,0,0,1,5,15.83,7.91,7.91,0,0,1,4.11,13H11v6.88A7.8,7.8,0,0,1,8.17,19,8.56,8.56,0,0,1,6.34,17.66ZM19,15.82a8.88,8.88,0,0,1-1.37,1.84A8.73,8.73,0,0,1,15.82,19a7.61,7.61,0,0,1-2.82.85V13h6.89A7.86,7.86,0,0,1,19,15.82Z"/></g></g></svg>