<svg xmlns="http://www.w3.org/2000/svg" viewBox="0 0 24 24"><defs><style>.cls-1{fill:none;}</style></defs><g id="icons"><g id="sensorenvironment"><rect id="margin" class="cls-1" width="24" height="24"/><path id="icon" d="M14.78,8.1a1,1,0,0,1-1.37,0A1.94,1.94,0,0,0,12,7.52a1.94,1.94,0,0,0-1.41.54,1,1,0,0,1-.71.3,1,1,0,0,1-.66-.26,1,1,0,0,1,0-1.37A3.87,3.87,0,0,1,12,5.59a3.87,3.87,0,0,1,2.82,1.14A1,1,0,0,1,14.78,8.1ZM8.48,5.37a1,1,0,0,0,.71-.31A3.87,3.87,0,0,1,12,3.94a3.87,3.87,0,0,1,2.81,1.12,1,1,0,1,0,1.42-1.31A5.72,5.72,0,0,0,12,2,5.72,5.72,0,0,0,7.77,3.75a1,1,0,0,0,.05,1.37A1,1,0,0,0,8.48,5.37Zm-.42,8a2,2,0,0,1-.54-1.41,2,2,0,0,1,.54-1.42,1,1,0,0,0,0-1.36,1,1,0,0,0-1.37,0,3.83,3.83,0,0,0-1.14,2.82,3.87,3.87,0,0,0,1.14,2.82A1,1,0,0,0,7.4,15a1,1,0,0,0,.66-1.67ZM3.94,11.91A3.87,3.87,0,0,1,5.06,9.1,1,1,0,1,0,3.75,7.67,5.76,5.76,0,0,0,2,11.91a5.73,5.73,0,0,0,1.75,4.23,1,1,0,0,0,.65.25,1,1,0,0,0,.66-1.68A3.82,3.82,0,0,1,3.94,11.91Zm9.47,4a1.94,1.94,0,0,1-1.41.54,1.94,1.94,0,0,1-1.41-.54,1,1,0,0,0-1.41,1.33A3.87,3.87,0,0,0,12,18.41a3.87,3.87,0,0,0,2.82-1.14,1,1,0,0,0-1.41-1.33Zm1.4,3A3.87,3.87,0,0,1,12,20.06a3.87,3.87,0,0,1-2.81-1.12,1,1,0,1,0-1.42,1.31A5.72,5.72,0,0,0,12,22a5.72,5.72,0,0,0,4.23-1.75,1,1,0,1,0-1.42-1.31ZM15.9,9.13a1,1,0,0,0,0,1.36,2,2,0,0,1,.54,1.42,2,2,0,0,1-.54,1.41A1,1,0,0,0,16.6,15a1,1,0,0,0,.67-.26,3.87,3.87,0,0,0,1.14-2.82,3.83,3.83,0,0,0-1.14-2.82A1,1,0,0,0,15.9,9.13Zm4.35-1.46A1,1,0,0,0,18.94,9.1a3.87,3.87,0,0,1,1.12,2.81,3.82,3.82,0,0,1-1.12,2.8,1,1,0,0,0,.66,1.68,1,1,0,0,0,.65-.25A5.73,5.73,0,0,0,22,11.91,5.76,5.76,0,0,0,20.25,7.67ZM12,10a2,2,0,1,0,2,2A2,2,0,0,0,12,10Z"/></g></g></svg>