<svg xmlns="http://www.w3.org/2000/svg" viewBox="0 0 24 24"><defs><style>.cls-1{fill:none;}</style></defs><g id="icons"><g id="mpt-3dtarget"><rect id="margin" class="cls-1" width="24" height="24"/><path id="icon" d="M21.59,9.16a10.46,10.46,0,0,0-6.74-6.75A10.71,10.71,0,0,0,12,2a10.71,10.71,0,0,0-2.85.41A10.46,10.46,0,0,0,2.41,9.16,10.61,10.61,0,0,0,2,12a10.65,10.65,0,0,0,.41,2.84,10.45,10.45,0,0,0,6.76,6.75A10.6,10.6,0,0,0,12,22a10.6,10.6,0,0,0,2.83-.41,10.45,10.45,0,0,0,6.76-6.75A10.65,10.65,0,0,0,22,12,10.61,10.61,0,0,0,21.59,9.16ZM12,4a7.92,7.92,0,0,1,4.9,1.69l-4.39,4.38a1.89,1.89,0,0,0-1,0L7.1,5.69A7.92,7.92,0,0,1,12,4ZM4,12A7.92,7.92,0,0,1,5.69,7.1l4.38,4.39a1.89,1.89,0,0,0,0,1L5.69,16.9A7.92,7.92,0,0,1,4,12Zm8,8a7.92,7.92,0,0,1-4.9-1.69l4.39-4.38a1.89,1.89,0,0,0,1,0l4.39,4.38A7.92,7.92,0,0,1,12,20Zm6.31-3.1-4.38-4.39a1.89,1.89,0,0,0,0-1L18.31,7.1a7.95,7.95,0,0,1,0,9.8Z"/></g></g></svg>