<svg xmlns="http://www.w3.org/2000/svg" viewBox="0 0 24 24"><defs><style>.cls-1{fill:none;}</style></defs><g id="icons"><g id="sensordeformation"><rect id="margin" class="cls-1" width="24" height="24"/><path id="icon" d="M17.25,13a4.43,4.43,0,0,0-.9.09,6.5,6.5,0,1,0-9.2,0,4.43,4.43,0,0,0-.9-.09,4.54,4.54,0,1,0,3.48,1.67,6.35,6.35,0,0,0,4,0A4.49,4.49,0,1,0,17.25,13Zm-11,7a2.5,2.5,0,1,1,2.5-2.5A2.5,2.5,0,0,1,6.25,20Zm1-11.5a4.5,4.5,0,1,1,4.5,4.5A4.51,4.51,0,0,1,7.25,8.5Zm10,11.5a2.5,2.5,0,1,1,2.5-2.5A2.5,2.5,0,0,1,17.25,20ZM14.75,9.5h-2v2h-2v-2h-2v-2h2v-2h2v2h2Z"/></g></g></svg>