<svg xmlns="http://www.w3.org/2000/svg" viewBox="0 0 24 24"><defs><style>.cls-1{fill:none;}</style></defs><g id="icons-draft"><g id="palette"><g id="information"><rect id="margin" class="cls-1" width="24" height="24"/></g><path id="icon" d="M17.5,12A1.5,1.5,0,1,1,19,10.5,1.5,1.5,0,0,1,17.5,12m-3-4A1.5,1.5,0,1,1,16,6.5,1.5,1.5,0,0,1,14.5,8m-5,0A1.5,1.5,0,1,1,11,6.5,1.5,1.5,0,0,1,9.5,8m-3,4A1.5,1.5,0,1,1,8,10.5,1.5,1.5,0,0,1,6.5,12M12,3a9,9,0,0,0,0,18,1.5,1.5,0,0,0,1.5-1.5,1.47,1.47,0,0,0-.39-1,1.55,1.55,0,0,1-.38-1,1.5,1.5,0,0,1,1.5-1.5H16a5,5,0,0,0,5-5C21,6.58,17,3,12,3Z"/></g></g></svg>