<svg xmlns="http://www.w3.org/2000/svg" viewBox="0 0 24 24"><defs><style>.cls-1{fill:none;}</style></defs><g id="icons"><g id="file-pdf"><rect id="margin" class="cls-1" width="24" height="24"/><path id="icon" d="M13,9h5.5L13,3.5V9M6,2h8l6,6V20a2,2,0,0,1-2,2H6a2,2,0,0,1-2-2V4A2,2,0,0,1,6,2m4.1,9.4A14.88,14.88,0,0,1,8,16.09s-3.5,1.82-2.67,3.18c.67,1.08,2.32,0,3.74-2.68a18.21,18.21,0,0,1,4.24-.82s3.86,1.73,4.39-.11-3.06-1.44-3.7-1.25a6.76,6.76,0,0,1-2.5-3.21s1.14-3.95-.61-3.9-1.09,3.13-.79,4.1m.81,1A7.54,7.54,0,0,0,12.8,14.9a25.2,25.2,0,0,0-3.39.9,19.18,19.18,0,0,0,1.5-3.36m3.93,2.72c.58-.16,2.33.15,2.26.48s-2.26-.48-2.26-.48M7.77,17A3.7,3.7,0,0,1,6.1,19c-.23,0,.7-1.6,1.67-2m3.14-6.93c0-.07-.36-2.2,0-2.15C11.45,8,10.91,10,10.91,10.07Z"/></g></g></svg>