<svg xmlns="http://www.w3.org/2000/svg" viewBox="0 0 24 24"><defs><style>.cls-1{fill:none;}</style></defs><g id="icons"><g id="pencil-outline"><rect id="margin" class="cls-1" width="24" height="24"/><path id="icon" d="M20.21,7.54,17.87,9.88,14.12,6.13l2.34-2.34a1,1,0,0,1,.7-.29,1,1,0,0,1,.39.08,1,1,0,0,1,.32.21l2.34,2.34a1,1,0,0,1,.21.32,1.09,1.09,0,0,1,.08.39,1,1,0,0,1-.29.7ZM3.5,16.75,13.56,6.69l3.75,3.75L7.25,20.5H3.5V16.75ZM17.12,4.55,15.58,6.08l2.34,2.34,1.54-1.54Zm-1.26,5.93L13.52,8.14l-9,9V19.5H6.84Z"/></g></g></svg>