<svg xmlns="http://www.w3.org/2000/svg" viewBox="0 0 24 24"><defs><style>.cls-1{fill:none;}</style></defs><g id="icons"><g id="plus-circle"><rect id="margin" class="cls-1" width="24" height="24"/><path id="icon" d="M15.71,11.29A1,1,0,0,1,15,13H13v2a1,1,0,0,1-.29.71A1.05,1.05,0,0,1,12,16a1,1,0,0,1-.71-.29A1,1,0,0,1,11,15V13H9a1,1,0,1,1,0-2h2V9a1,1,0,0,1,.29-.71A1,1,0,0,1,12,8a1.05,1.05,0,0,1,.71.29A1,1,0,0,1,13,9v2h2A1,1,0,0,1,15.71,11.29ZM22,12a10,10,0,1,1-.76-3.83A10,10,0,0,1,22,12Zm-2,0a8,8,0,1,0-2.34,5.66A8,8,0,0,0,20,12Z"/></g></g></svg>