<svg xmlns="http://www.w3.org/2000/svg" viewBox="0 0 24 24"><defs><style>.cls-1{fill:none;}</style></defs><g id="icons"><g id="pore-pressure-measurement"><rect id="margin" class="cls-1" width="24" height="24"/><path d="M14.16,7a.61.61,0,0,1,0,.85L13,9V9a1,1,0,1,1-1-1h0l1.17-1.17a.61.61,0,0,1,.85,0ZM10,17a1,1,0,0,0,1,1v2H9v2h6V20H13V18a1,1,0,0,0,0-2H11A1,1,0,0,0,10,17Zm2-1a7,7,0,1,1,7-7A7,7,0,0,1,12,16Zm4.41-3.55A5.49,5.49,0,0,0,17.55,9.7H16.9V8.3h.65a5.49,5.49,0,0,0-1.14-2.75L15.94,6,15,5l.46-.46a5.56,5.56,0,0,0-2.74-1.12V4h-1.4V3.45A5.57,5.57,0,0,0,8.55,4.59L9,5.06l-1,1c-.33-.34-.2-.2-.46-.46A5.53,5.53,0,0,0,6.45,8.3H7.1V9.7H6.45a5.53,5.53,0,0,0,1.11,2.71L8,12l1,1-.46.47a5.57,5.57,0,0,0,2.72,1.14V14h1.4v.56a5.56,5.56,0,0,0,2.74-1.12c-.28-.29-.08-.08-.46-.46l1-1Z"/></g></g></svg>