<svg xmlns="http://www.w3.org/2000/svg" viewBox="0 0 24 24"><defs><style>.cls-1{fill:none;}</style></defs><g id="icons"><rect id="margin" class="cls-1" width="24" height="24"/><path d="M5.79,8.07c.07-.21.14-.41.22-.6C5.93,7.66,5.86,7.86,5.79,8.07Zm-.09.31c0,.2-.09.41-.13.63C5.61,8.79,5.65,8.58,5.7,8.38ZM10,19a1,1,0,0,0,1,1v2h2V20a1,1,0,0,0,0-2H11A1,1,0,0,0,10,19ZM15.11,7.11a.6.6,0,0,1,0,.84L13,10.06A1,1,0,1,1,11.94,9l2.11-2.11a.6.6,0,0,1,.84,0ZM20,10a8,8,0,1,0-8,8A8,8,0,0,0,20,10Zm-8,6.5A6.5,6.5,0,0,1,5.5,10a8,8,0,0,1,.07-1c0-.22.08-.43.13-.63l.09-.31c.07-.21.14-.41.22-.6A6.67,6.67,0,0,1,7.4,5.4c.15-.14.3-.28.47-.42l.24-.19c.17-.12.34-.24.52-.35a6.51,6.51,0,0,1,6.74,0c.18.11.35.23.52.35l.24.19c.17.14.32.28.47.42A6.67,6.67,0,0,1,18,7.47c.08.19.15.39.22.6l.09.31c.05.2.09.41.13.63a8,8,0,0,1,.07,1A6.5,6.5,0,0,1,12,16.5Z"/></g></svg>