<svg xmlns="http://www.w3.org/2000/svg" viewBox="0 0 24 24"><defs><style>.cls-1{fill:none;}</style></defs><g id="icons"><g id="pore-pressure-measurement"><rect id="margin" class="cls-1" width="24" height="24"/><path id="icon" d="M12,2A10,10,0,1,0,22,12,10,10,0,0,0,12,2Zm6.3,14.93-.67-.66-1.41,1.41.66.66A7.93,7.93,0,0,1,13,19.94v-1H11v1A8,8,0,0,1,7.07,18.3l.66-.67L6.32,16.22l-.66.66A8.07,8.07,0,0,1,4.06,13H5V11H4.06a8.07,8.07,0,0,1,1.6-3.88l.66.66L7.73,6.37,7.07,5.7A8,8,0,0,1,11,4.07V4.9h2V4.06a7.93,7.93,0,0,1,3.93,1.6l-.66.66,1.41,1.41.67-.66A8,8,0,0,1,19.94,11H19v2h.94A8,8,0,0,1,18.3,16.93ZM15.39,9.56a.59.59,0,0,1,0,.85l-1.85,1.85v0a1.42,1.42,0,1,1-1.42-1.42h0L14,9a.59.59,0,0,1,.85,0Z"/></g></g></svg>