<svg xmlns="http://www.w3.org/2000/svg" viewBox="0 0 24 24"><defs><style>.cls-1{fill:none;}</style></defs><g id="icons"><rect id="margin" class="cls-1" width="24" height="24"/><path d="M22,19v0H20c0-1.66,0-3.28,0-4.86a6.59,6.59,0,0,0-.07-1A5.83,5.83,0,0,0,18.29,9.7l-.79.79a.46.46,0,0,1-.65,0l-.41-.41a.46.46,0,0,1,0-.65l.7-.7c-.31-.21-.64-.42-1-.62a8.35,8.35,0,0,0-6.28-.8,7.75,7.75,0,0,0-3,1.44l.66.66a.46.46,0,0,1,0,.65l-.41.41a.46.46,0,0,1-.65,0l-.68-.68a7.45,7.45,0,0,0-.69,1A6,6,0,0,0,4,14.36V19H2c0-1.25,0-2.65,0-4.29A9.38,9.38,0,0,1,3.37,9.6a10.36,10.36,0,0,1,1-1.28l-.58-.58A.75.75,0,1,1,4.8,6.68l.59.58A9.61,9.61,0,0,1,9.33,5.31a10.42,10.42,0,0,1,7.86,1,10.27,10.27,0,0,1,1.41,1l.61-.61a.75.75,0,0,1,1.06,0h0a.75.75,0,0,1,0,1.06l-.58.58a9.13,9.13,0,0,1,2.22,5A8.47,8.47,0,0,1,22,14.5C22,16.48,22,17,22,19Z"/></g></svg>