<svg xmlns="http://www.w3.org/2000/svg" viewBox="0 0 24 24"><defs><style>.cls-1{fill:none;}</style></defs><g id="icons"><rect id="margin" class="cls-1" width="24" height="24"/><path d="M22,12.55a8.38,8.38,0,0,0-.08-1.23,9.06,9.06,0,0,0-4.72-7,10.37,10.37,0,0,0-7.86-1A9.42,9.42,0,0,0,2,12.79c0,1.64,0,5.76,0,7a.34.34,0,0,0,0,.1v.2a.9.9,0,0,0,.9.9H21.1a.9.9,0,0,0,.9-.9v-.22C22,17.83,22,14.53,22,12.55ZM5.1,8.79A7.59,7.59,0,0,1,9.87,5.36a8.35,8.35,0,0,1,6.28.8c2.16,1.22,3.43,2.6,3.77,5.07a6.59,6.59,0,0,1,.07,1c0,1.58,0,5.11,0,6.77H4V12.41A6,6,0,0,1,5.1,8.79Z"/></g></svg>