<svg xmlns="http://www.w3.org/2000/svg" viewBox="0 0 24 24"><defs><style>.cls-1{fill:none;}</style></defs><g id="icons"><rect id="margin" class="cls-1" width="24" height="24"/><path d="M20,17v-.15c0-1.61,0-3.11,0-4.72a6.59,6.59,0,0,0-.07-1c-.34-2.47-1.61-3.73-3.77-4.95a8.3,8.3,0,0,0-6.28-.8A7.52,7.52,0,0,0,5.1,8.82,5.62,5.62,0,0,0,4,12.32v4.52A.92.92,0,0,0,4,17L2,19c0-.08,0-.14,0-.2,0-1.93,0-4.17,0-6.11a9,9,0,0,1,1.37-5,9.4,9.4,0,0,1,6-4.29,10.41,10.41,0,0,1,7.86,1,8.89,8.89,0,0,1,4.72,6.85A8.38,8.38,0,0,1,22,12.46c0,2,0,4.32,0,6.34,0,.05,0,.11,0,.19Z"/><path d="M3,21l2-2H19c.5.5,1.4,1.4,2,2Z"/></g></svg>