<svg xmlns="http://www.w3.org/2000/svg" viewBox="0 0 24 24"><defs><style>.cls-1{fill:none;}</style></defs><g id="icons"><g id="puzzle"><rect id="margin" class="cls-1" width="24" height="24"/><path id="icon" d="M19,11.47C18.79,9.79,18,9,16.7,9s-2.07.91-2.23,2.47h-2V9.16c0-.8-.15-.92-.93-.72A1.17,1.17,0,0,1,10.24,8a1.17,1.17,0,0,1,0-1.45A1.18,1.18,0,0,1,11.55,6c.82.18.94.09.94-.77V2c.23,0,5.37,0,7.75,0C21.45,2,22,2.53,22,3.75c0,2.38,0,7.53,0,7.74ZM20.25,22c1.21,0,1.74-.55,1.75-1.76,0-2.39,0-7.53,0-7.75H18.72c-.86,0-.94-.12-.76-.94a1.18,1.18,0,0,0-.49-1.32,1.14,1.14,0,0,0-1.45,0,1.17,1.17,0,0,0-.47,1.32c.2.77.08.91-.72.92H12.54v2c1.48.14,2.38.86,2.43,2.05A2.93,2.93,0,0,1,14.59,18a2.23,2.23,0,0,1-2.08,1c0,1,0,3,0,3ZM2,13.14v7C2,21.48,2.51,22,3.81,22h7.7V18.62c0-.72.18-.87.86-.68a1.19,1.19,0,0,0,1.38-.46,1.15,1.15,0,0,0,0-1.45,1.19,1.19,0,0,0-1.38-.47c-.68.2-.87,0-.87-.66s0-1.58,0-2.37h-2C9.35,14.05,8.62,15,7.43,15A3,3,0,0,1,6,14.57a2.23,2.23,0,0,1-1-2.06H2ZM9,7.46A3,3,0,0,1,9.4,6a2.16,2.16,0,0,1,2.06-1V2H3.81C2.51,2,2,2.51,2,3.82c0,2.36,0,7.46,0,7.68H5.28c.86,0,.94.11.75.95a1.17,1.17,0,0,0,.5,1.31,1.15,1.15,0,0,0,1.45,0,1.18,1.18,0,0,0,.46-1.32c-.2-.76-.08-.91.73-.92h2.31v-2C10,9.38,9.06,8.64,9,7.46Z"/></g></g></svg>