<svg xmlns="http://www.w3.org/2000/svg" viewBox="0 0 24 24"><defs><style>.cls-1{fill:none;}</style></defs><g id="icons"><g id="rotate-left"><rect id="margin" class="cls-1" width="24" height="24"/><path id="icon" d="M12.92,5.92V3L8.59,7.33l4.33,4.23V7.84a5.7,5.7,0,0,1,0,11.24V21a7.6,7.6,0,0,0,0-15.08M7.31,19.47A7.53,7.53,0,0,0,11,21V19.07a5.61,5.61,0,0,1-2.34-1L7.31,19.47m-1-5.06H4.43A7.46,7.46,0,0,0,6,18.11l1.34-1.35a5.56,5.56,0,0,1-1-2.35m1-4.25L6,8.81a7.48,7.48,0,0,0-1.55,3.7H6.35A5.5,5.5,0,0,1,7.32,10.16Z"/></g></g></svg>