<svg xmlns="http://www.w3.org/2000/svg" viewBox="0 0 24 24"><defs><style>.cls-1{fill:none;}</style></defs><g id="icons"><g id="rotate-right"><rect id="margin" class="cls-1" width="24" height="24"/><path id="icon" d="M16.68,16.79,18,18.11a7.46,7.46,0,0,0,1.54-3.7H17.65a5.64,5.64,0,0,1-1,2.38M13,19.07V21a7.44,7.44,0,0,0,3.71-1.53l-1.37-1.37a5.48,5.48,0,0,1-2.34,1m6.59-6.56A7.46,7.46,0,0,0,18,8.81l-1.35,1.35a5.38,5.38,0,0,1,1,2.35ZM15.41,7.33,11.08,3V5.92a7.6,7.6,0,0,0,0,15.08V19.08a5.7,5.7,0,0,1,0-11.24v3.72Z"/></g></g></svg>