<svg xmlns="http://www.w3.org/2000/svg" viewBox="0 0 24 24"><defs><style>.cls-1{fill:none;}</style></defs><g id="icons-draft"><g id="section_height_2_4" data-name="section height 2/4"><rect id="margin" class="cls-1" width="24" height="24"/><path id="icon" d="M10.6,12H7V5h3.6ZM17,13.5H13.9l1.6-1.8a3.07,3.07,0,0,0,1.1-2.1,1.66,1.66,0,0,0-.5-1.2A1.84,1.84,0,0,0,14.8,8a2.46,2.46,0,0,0-1.5.5,1.62,1.62,0,0,0-.5,1.4h.8a1.22,1.22,0,0,1,.3-.9,1.22,1.22,0,0,1,.9-.3,1,1,0,0,1,1.1,1.1,1.85,1.85,0,0,1-.2.7,6.78,6.78,0,0,1-.6.9L13,13.7v.6h4v-.8ZM21,3V21H3V3H21m1-1H2V22H22V2Z"/></g></g></svg>