<svg xmlns="http://www.w3.org/2000/svg" viewBox="0 0 24 24"><defs><style>.cls-1{fill:none;}</style></defs><g id="icons-draft"><g id="section_height" data-name="section height"><rect id="margin" class="cls-1" width="24" height="24"/><path id="icon" d="M10.6,16H7V5h3.6Zm3.9-5.3h.6a1.69,1.69,0,0,1,1,.3,1.14,1.14,0,0,1,.3.8A1.06,1.06,0,0,1,15.2,13a1.4,1.4,0,0,1-.9-.3.83.83,0,0,1-.3-.8h-.8a2.11,2.11,0,0,0,.5,1.3,2.17,2.17,0,0,0,1.4.5,2,2,0,0,0,1.4-.5,1.54,1.54,0,0,0,.5-1.3,1.22,1.22,0,0,0-.3-.9,1.58,1.58,0,0,0-.8-.5,1.34,1.34,0,0,0,.7-.6,1.33,1.33,0,0,0,.3-.8,1.73,1.73,0,0,0-.5-1.3A2,2,0,0,0,15,7.3a2.17,2.17,0,0,0-1.4.5A1.35,1.35,0,0,0,13.1,9h.8A1,1,0,0,1,15,7.9,1,1,0,0,1,16.1,9a1.14,1.14,0,0,1-.3.8,1.22,1.22,0,0,1-.9.3h-.6v.6ZM21,3V21H3V3H21m1-1H2V22H22V2Z"/></g></g></svg>