<svg xmlns="http://www.w3.org/2000/svg" viewBox="0 0 24 24"><defs><style>.cls-1{fill:none;}</style></defs><g id="icons-draft"><rect id="margin" class="cls-1" width="24" height="24"/><path id="icon" d="M8,5.29l10.18,8.38H13.7A3.86,3.86,0,0,0,10.82,15L8,18.25v-13M7.2,2.4a1.26,1.26,0,0,0-.51.11,1.21,1.21,0,0,0-.5.45A1.12,1.12,0,0,0,6,3.6V20.4a1.2,1.2,0,0,0,1.21,1.2,1.18,1.18,0,0,0,.9-.42l4.23-4.88a1.62,1.62,0,0,1,.61-.46,1.75,1.75,0,0,1,.75-.17h6.71a1.2,1.2,0,0,0,.76-2.12L8,2.67a1.24,1.24,0,0,0-.61-.26Z"/></g></svg>