<svg xmlns="http://www.w3.org/2000/svg" viewBox="0 0 24 24"><defs><style>.cls-1{fill:none;}</style></defs><g id="icons"><g id="select-row"><rect id="margin" class="cls-1" width="24" height="24"/><path id="icon" d="M3.5,12h-1V11h1Zm0-7h-1V6h1Zm7,16h1V20h-1ZM3.5,3V2h-1V4h1Zm-1,15h1V17h-1Zm0,2v1h1V19h-1Zm4,1h1V20h-1Zm-2,0h1V20h-1Zm15-17h-3V7h3Zm-2-2h-1V3h1Zm-4,0h-1V3h1Zm-8,0h-1V3h1Zm14,0h-1V3h1ZM7.5,2h-1V3h1Zm4,0h-1V3h1Zm2,2h-3V7h3Zm-6,0h-3V7h3Zm-5,6h1V9h-1Zm0-3V8h1V7Zm0,6v1h1V13Zm13-5h5V9h-5v5h5v1h-5v6h-1V15h-5v6h-1V15h-5V14h5V9h-5V8h5V2h1V8h5V2h1V8Zm-1,1h-5v5h5Zm6-1h1V7h-1Zm0-6V4h1V2ZM2.5,16h1V15h-1Zm18-10h1V5h-1Zm1,7h-1v1h1Zm-1,7v1h1V19h-1Zm-2,1h1V20h-1Zm2-3h1V17h-1Zm-4,3h1V20h-1Zm4-9h1V11h-1Zm-8,9h1V20h-1Zm9-11V9h-1v1Zm0,6V15h-1v1Z"/></g></g></svg>