<svg xmlns="http://www.w3.org/2000/svg" viewBox="0 0 24 24"><defs><style>.cls-1{fill:none;}</style></defs><g id="icons"><g id="selected_all" data-name="selected all"><rect id="margin" class="cls-1" width="24" height="24"/><path id="icon" d="M16.75,9.61,10.47,15.9,7.39,12.81,8.23,12l2.24,2.23,5.44-5.44ZM12,2,7.56,6.44h8.88Zm8.89,18.89V5.33a1.11,1.11,0,0,0-1.11-1.11H16.44l2.23,2.22V19.78H5.33V6.44L7.56,4.22H4.22A1.11,1.11,0,0,0,3.11,5.33V20.89A1.11,1.11,0,0,0,4.22,22H19.78A1.11,1.11,0,0,0,20.89,20.89Z"/></g></g></svg>