<svg xmlns="http://www.w3.org/2000/svg" viewBox="0 0 24 24"><defs><style>.cls-1{fill:none;}</style></defs><g id="icons"><g id="select-column"><rect id="margin" class="cls-1" width="24" height="24"/><path id="icons-2" data-name="icons" d="M12.5,20h1v1h-1Zm-9-9h-1v1h1Zm0-6h-1V6h1Zm1,13.9h3v-3h-3Zm6,2.1h1V20h-1Zm-8-3h1V17h-1Zm4,3h1V20h-1Zm-2,0h1V20h-1Zm-2-1v1h1V19h-1Zm11-18h-1V3h1ZM3.5,3V2h-1V4h1Zm14-1h-1V3h1Zm2,0h-1V3h1Zm-8,0h-1V3h1Zm-4,2h-3V7h3Zm-2-2h-1V3h1Zm2,0h-1V3h1Zm-5,14h1V15h-1Zm13-8h5V9h-5v5h5v1h-5v6h-1V15h-5v6h-1V15h-5V14h5V9h-5V8h5V2h1V8h5V2h1V8Zm-1,1h-5v5h5Zm-12,4v1h1V13Zm18-5h1V7h-1Zm-18,2h1V9h-1Zm0-3V8h1V7Zm2,3v3h3V10Zm16-8V4h1V2Zm0,4h1V5h-1Zm1,10V15h-1v1Zm-1,4v1h1V19h-1Zm0-2h1V17h-1Zm-2,3h1V20h-1Zm3-11V9h-1v1Zm-1,2h1V11h-1Zm1,1h-1v1h1Zm-5,8h1V20h-1Z"/></g></g></svg>