<svg xmlns="http://www.w3.org/2000/svg" viewBox="0 0 24 24"><defs><style>.cls-1{fill:none;}</style></defs><g id="icons"><g id="settings-edit"><rect id="margin" class="cls-1" width="24" height="24"/><path id="icon" d="M15.1,21.05V19.64l4.47-4.45a.27.27,0,0,1,.4,0l1,1a.3.3,0,0,1,0,.41L16.5,21.05Zm2.41-8.43-1.6,2.76a.4.4,0,0,1-.49.17l-2-.8a5.9,5.9,0,0,1-1.35.79l-.31,2.12a.39.39,0,0,1-.39.34H8.18a.42.42,0,0,1-.4-.34l-.3-2.12a5.63,5.63,0,0,1-1.34-.79l-2,.8a.39.39,0,0,1-.48-.17l-1.6-2.76a.4.4,0,0,1,.09-.52l1.69-1.32L3.78,10l.06-.79L2.15,7.9a.4.4,0,0,1-.09-.52l1.6-2.76a.38.38,0,0,1,.48-.19l2,.82a5.31,5.31,0,0,1,1.34-.79l.3-2.13A.42.42,0,0,1,8.18,2h3.2a.39.39,0,0,1,.39.33l.31,2.13a5.55,5.55,0,0,1,1.35.79l2-.82a.4.4,0,0,1,.49.19l1.6,2.76a.43.43,0,0,1-.09.52l-1.7,1.31.06.79-.06.78,1.7,1.32A.42.42,0,0,1,17.51,12.62ZM12.58,10a2.8,2.8,0,1,0-2.8,2.8A2.81,2.81,0,0,0,12.58,10Z"/></g></g></svg>