<svg xmlns="http://www.w3.org/2000/svg" viewBox="0 0 24 24"><defs><style>.cls-1{fill:none;}</style></defs><g id="icons"><g id="settings-edit"><rect id="margin" class="cls-1" width="24" height="24"/><path id="icon" d="M19,22V20H15V18h4V16l3,3Zm-1.46-9.38-1.6,2.76a.39.39,0,0,1-.49.17l-2-.8a5.83,5.83,0,0,1-1.34.79l-.31,2.12a.41.41,0,0,1-.39.34H8.22a.4.4,0,0,1-.4-.34l-.3-2.12a5.69,5.69,0,0,1-1.35-.79l-2,.8a.39.39,0,0,1-.48-.17l-1.6-2.76a.42.42,0,0,1,.09-.52l1.7-1.32L3.82,10l.06-.79L2.18,7.9a.43.43,0,0,1-.09-.52l1.6-2.76a.39.39,0,0,1,.48-.19l2,.82a5.37,5.37,0,0,1,1.35-.79l.3-2.13A.4.4,0,0,1,8.22,2h3.2a.41.41,0,0,1,.39.33l.31,2.13a5.49,5.49,0,0,1,1.34.79l2-.82a.39.39,0,0,1,.49.19l1.6,2.76a.4.4,0,0,1-.09.52L15.76,9.21l.06.79-.06.78,1.69,1.32A.4.4,0,0,1,17.54,12.62ZM12.38,10a2.8,2.8,0,1,0-2.8,2.8A2.81,2.81,0,0,0,12.38,10Z"/></g></g></svg>