<svg xmlns="http://www.w3.org/2000/svg" viewBox="0 0 24 24"><defs><style>.cls-1{fill:none;}</style></defs><g id="icons"><g id="sort-alpha-ascending"><rect id="margin" class="cls-1" width="24" height="24"/><path id="icon" d="M9.46,5.17,12.63,2,15.8,5.17H9.46M15.8,18.83,12.63,22,9.46,18.83H15.8M9.11,14.24H6.29l-.7,2.64H3.27l3-9.76H9.21l3.06,9.76H9.87l-.76-2.64m-2.5-1.58H8.79L8.17,10.6l-.25-.95-.25-.94h0l-.21.95-.23.95-.59,2.05m6.56,4.22V15.65L17.8,9V9H13.6V7.12h7.06V8.43l-4.53,6.5V15h4.6v1.88Z"/></g></g></svg>