<svg xmlns="http://www.w3.org/2000/svg" viewBox="0 0 24 24"><defs><style>.cls-1{fill:none;}</style></defs><g id="icons"><g id="sort"><rect id="margin" class="cls-1" width="24" height="24"/><path id="icon" d="M16,20.58a1.12,1.12,0,0,0,1.54,0l4.08-3.93a1.08,1.08,0,0,0,.36-.78,1.07,1.07,0,0,0-.31-.81,1.1,1.1,0,0,0-.8-.34,1.26,1.26,0,0,0-.43.08,1.34,1.34,0,0,0-.37.25L17.9,17.17v-13a1.16,1.16,0,0,0-.32-.79,1.14,1.14,0,0,0-1.58,0,1.16,1.16,0,0,0-.32.79v13l-2.19-2.12a1.34,1.34,0,0,0-.37-.25,1.26,1.26,0,0,0-.43-.08,1.1,1.1,0,0,0-.8.34,1.07,1.07,0,0,0-.31.81,1.08,1.08,0,0,0,.36.78ZM7.94,3.44a1.09,1.09,0,0,0-.78-.33,1.11,1.11,0,0,0-.79.33L2.3,7.51a1.12,1.12,0,0,0-.3.78A1.13,1.13,0,0,0,3.09,9.38a1.12,1.12,0,0,0,.78-.3L6.05,6.9V19.78a1.12,1.12,0,0,0,.32.79,1.15,1.15,0,0,0,.79.32,1.11,1.11,0,0,0,1.11-1.11V6.9l2.18,2.18a1.12,1.12,0,0,0,.78.3A1.1,1.1,0,0,0,12,9.05a1.08,1.08,0,0,0,.33-.76,1.17,1.17,0,0,0-.3-.78Z"/></g></g></svg>