<svg xmlns="http://www.w3.org/2000/svg" viewBox="0 0 24 24"><defs><style>.cls-1{fill:none;}</style></defs><g id="icons"><g id="sql-query-result-only"><rect id="margin" class="cls-1" width="24" height="24"/><path id="icon" d="M12,2C7,2,3,4.13,3,6.76s4,4.76,9,4.76,9-2.13,9-4.76S17,2,12,2ZM9,5H7V6H9V9H6V8H8V7H6V4H9Zm5,0V7H13V8h1V9H13V8H12V9H10V4h4Zm4,4H15V4h1V8h2ZM13,5V7H12V8H11V5ZM3,12.57V9.42c0,2.32,4,4.2,9,4.2s9-1.88,9-4.2v3.15a2.12,2.12,0,0,1-.32,1.1,6.27,6.27,0,0,0-.88-.07,5.32,5.32,0,0,0-4.74,2.92,18.49,18.49,0,0,1-3.06.25C7,16.77,3,14.89,3,12.57Zm12.32,9.16A18.38,18.38,0,0,1,12,22c-5,0-9-1.89-9-4.21V14.67c0,2.32,4,4.2,9,4.2a18.22,18.22,0,0,0,2.5-.16v.19A5.26,5.26,0,0,0,15.32,21.73ZM20.5,19,22,20.5,20.5,22V21H18V19H16V18h2V16h2.5V15L22,16.5,20.5,18V17H19v3h1.5Z"/></g></g></svg>