<svg xmlns="http://www.w3.org/2000/svg" viewBox="0 0 24 24.1"><defs><style>.cls-1{fill:none;}</style></defs><g id="icons"><g id="sql-execution"><polygon id="margin" class="cls-1" points="24 24.1 0 24 0 0 24 0.1 24 24.1"/><path id="icon" d="M3,12.57V9.42c0,2.32,4,4.2,9,4.2s9-1.88,9-4.2v3.15h0A7.2,7.2,0,0,0,20,12.5a6.42,6.42,0,0,0-6.15,4.19c-.58,0-1.18.08-1.8.08C7,16.77,3,14.89,3,12.57Zm10.51,6.24c-.49,0-1,.06-1.51.06-5,0-9-1.88-9-4.2v3.15C3,20.14,7,22,12,22a19.78,19.78,0,0,0,2.6-.18A5.66,5.66,0,0,1,13.51,18.81ZM3,6.76C3,4.13,7,2,12,2s9,2.13,9,4.76-4,4.76-9,4.76S3,9.39,3,6.76ZM15,9h3V8H16V4H15V9ZM10,9h2V8h1V9h1V8H13V7h1V4H10V9ZM6,9H9V6H7V5H9V4H6V7H8V8H6ZM19.9,19V15h-2v4h2Zm-2,1h2v2h-2ZM11,5V8h1V7h1V5Z"/></g></g></svg>