<svg xmlns="http://www.w3.org/2000/svg" viewBox="0 0 24 24"><defs><style>.cls-1{fill:none;}</style></defs><g id="icons"><g id="sql-query-only"><rect id="margin" class="cls-1" width="24" height="24"/><path id="icon" d="M18.17,19.62H17V17.28h2.33V16.12H17V15h3.5v3.5H18.17v1.17ZM17,22h1.17V20.78H17ZM12,11.52c5,0,9-2.13,9-4.76S17,2,12,2,3,4.13,3,6.76,7,11.52,12,11.52ZM15,8V4h1V8h2V9H15ZM10,8V4h4V7H13V8h1V9H13V8H12V9H10ZM6,8H8V7H6V4H9V5H7V6H9V9H6Zm8.8,13.82A19.18,19.18,0,0,1,12,22c-5,0-9-1.89-9-4.21V14.67c0,2.32,4,4.2,9,4.2.59,0,1.16,0,1.71-.08A5.8,5.8,0,0,0,14.8,21.82ZM13,5V7H12V8H11V5ZM3,12.57V9.42c0,2.32,4,4.2,9,4.2s9-1.88,9-4.2v3a7,7,0,0,0-.8,0A6.46,6.46,0,0,0,14,16.67a18.41,18.41,0,0,1-2,.1C7,16.77,3,14.89,3,12.57Z"/></g></g></svg>