<svg xmlns="http://www.w3.org/2000/svg" viewBox="0 0 24 24"><defs><style>.cls-1{fill:none;}</style></defs><g id="icons"><g id="sql-execute"><rect id="margin" class="cls-1" width="24" height="24"/><path id="icon" d="M3,10v3c0,2.21,4,4,9,4s9-1.79,9-4V10c0,2.21-4,4-9,4s-9-1.79-9-4m0,5v3c0,2.21,4,4,9,4s9-1.79,9-4V15c0,2.21-4,4-9,4S3,17.21,3,15ZM12,2C7,2,3,4.11,3,6.71s4,4.71,9,4.71,9-2.11,9-4.71S17,2,12,2ZM9,4.9H7v1H9v3H6v-1H8v-1H6v-3H9Zm5,0v2H13v1h1v1H13v-1H12v1H10v-5h4Zm4,4H15v-5h1v4h2Zm-5-4v2H12v1H11v-3Z"/></g></g></svg>