<svg xmlns="http://www.w3.org/2000/svg" viewBox="0 0 24 24"><defs><style>.cls-1{fill:none;}</style></defs><g id="icons"><g id="structures"><rect id="margin" class="cls-1" width="24" height="24"/><path id="icon" d="M19.5,14.37V9.43a1.5,1.5,0,0,0-.7-2.83,1.27,1.27,0,0,0-.28,0L15.75,3.86A1.5,1.5,0,1,0,12.8,3.5a1.58,1.58,0,0,0,0,.38l-2.8,2.69A1.33,1.33,0,0,0,9.6,6.5,1.5,1.5,0,0,0,8.1,8a1.31,1.31,0,0,0,.07.44L5.72,10.76a1.52,1.52,0,0,0-.42-.06,1.5,1.5,0,0,0-.78,2.78v5.74a1.5,1.5,0,1,0,2.11,2h6a1.5,1.5,0,0,0,2.83-.7,1.74,1.74,0,0,0-.05-.39l3-3a1.74,1.74,0,0,0,.39.05,1.5,1.5,0,0,0,.7-2.83Zm-6.18,4.79a1.61,1.61,0,0,0-.59.54H6.57A1.5,1.5,0,0,0,6,19.19V13.51A1.47,1.47,0,0,0,6.8,12.2a2.2,2.2,0,0,0,0-.36l2.5-2.38a1.27,1.27,0,0,0,.34,0,1.34,1.34,0,0,0,.4-.06l2.54,2.43a1.24,1.24,0,0,0,0,.33,1.5,1.5,0,0,0,.82,1.34ZM14,10.7a1.33,1.33,0,0,0-.45.07l-2.5-2.4a1.5,1.5,0,0,0,0-.37,1.12,1.12,0,0,0,0-.32L13.91,5a1.6,1.6,0,0,0,.39,0,1.4,1.4,0,0,0,.41-.06l2.67,2.67a1.57,1.57,0,0,0-.08.49,1.55,1.55,0,0,0,0,.31L14.8,10.94A1.45,1.45,0,0,0,14,10.7Zm.8,7.93V13.46a1.46,1.46,0,0,0,.69-1.09L18,9.86v4.57a1.51,1.51,0,0,0-.7,1.27,1.74,1.74,0,0,0,.05.39Z"/></g></g></svg>