<svg xmlns="http://www.w3.org/2000/svg" viewBox="0 0 24 24"><defs><style>.cls-1{fill:none;}</style></defs><g id="icons"><g id="table-delete"><rect id="margin" class="cls-1" width="24" height="24"/><path id="icon" d="M12.35,20.05H10v-3h2.09a6,6,0,0,1,.72-2H10v-3h4v1.54a5.57,5.57,0,0,1,2-1.19v-.35h4v.35a5.57,5.57,0,0,1,2,1.19V5.05a2,2,0,0,0-2-2H4a2,2,0,0,0-2,2v15a2,2,0,0,0,2,2h9.54a5.57,5.57,0,0,1-1.19-2M16,7.05h4v3H16v-3m-6,0h4v3H10v-3m-2,13H4v-3H8v3m0-5H4v-3H8v3m0-5H4v-3H8v3m6.46,5.88,1.42-1.42L18,16.64l2.12-2.13,1.42,1.42-2.13,2.12,2.13,2.12-1.42,1.42L18,19.46l-2.12,2.13-1.42-1.42,2.13-2.12-2.13-2.12"/></g></g></svg>