<svg xmlns="http://www.w3.org/2000/svg" viewBox="0 0 24 24"><defs><style>.cls-1{fill:none;}</style></defs><g id="icons"><g id="table-add"><rect id="margin" class="cls-1" width="24" height="24"/><path id="icon" d="M12.35,19H10V16h2.09a6,6,0,0,1,.72-2H10V11h4v1.54a5.57,5.57,0,0,1,2-1.19V11h4v.35a5.57,5.57,0,0,1,2,1.19V4a2,2,0,0,0-2-2H4A2,2,0,0,0,2,4V19a2,2,0,0,0,2,2h9.54a5.57,5.57,0,0,1-1.19-2M16,6h4V9H16V6M10,6h4V9H10V6M8,19H4V16H8v3m0-5H4V11H8v3M8,9H4V6H8V9m9,4h2v3h3v2H19v3H17V18H14V16h3V13"/></g></g></svg>