<svg xmlns="http://www.w3.org/2000/svg" viewBox="0 0 24 24"><defs><style>.cls-1{fill:none;}</style></defs><g id="icons-draft"><g id="task"><g id="margin"><rect class="cls-1" width="24" height="24"/></g><path id="icon" d="M4.5,2A2.49,2.49,0,0,0,2,4.5v15A2.49,2.49,0,0,0,4.5,22h15A2.49,2.49,0,0,0,22,19.5V4.5A2.49,2.49,0,0,0,19.5,2ZM5.89,15.06a.84.84,0,0,1,.83-.84h3.89a.83.83,0,0,1,.59.25.83.83,0,0,1,0,1.17.83.83,0,0,1-.59.25H6.72a.83.83,0,0,1-.59-.25.83.83,0,0,1-.24-.58Zm.83-7h3.89a.83.83,0,0,1,.59.25.83.83,0,0,1,0,1.17.83.83,0,0,1-.59.25H6.72a.84.84,0,0,1-.83-.84.83.83,0,0,1,.24-.58A.83.83,0,0,1,6.72,8.11Zm11.7-.87a.83.83,0,0,1,.25.59.82.82,0,0,1-.25.59L16.2,10.64a.82.82,0,0,1-1.18,0L13.91,9.53A.77.77,0,0,1,13.69,9a.8.8,0,0,1,.24-.57.83.83,0,0,1,.58-.25.85.85,0,0,1,.58.23l.52.52,1.63-1.64A.87.87,0,0,1,17.83,7a.85.85,0,0,1,.59.24Zm0,7.29L16.2,16.76a.85.85,0,0,1-1.18,0l-1.11-1.12a.66.66,0,0,1-.19-.27.71.71,0,0,1-.07-.32.65.65,0,0,1,.06-.33.71.71,0,0,1,.18-.27.77.77,0,0,1,.28-.19.87.87,0,0,1,.32-.06.88.88,0,0,1,.33.07.86.86,0,0,1,.27.2l.52.52,1.63-1.63a.86.86,0,0,1,.27-.2,1,1,0,0,1,.33-.07,1,1,0,0,1,.33.06,1,1,0,0,1,.27.18,1.07,1.07,0,0,1,.19.28,1,1,0,0,1,.06.33.88.88,0,0,1-.07.32.9.9,0,0,1-.2.27Z"/></g></g></svg>