<svg xmlns="http://www.w3.org/2000/svg" viewBox="0 0 24 24"><defs><style>.cls-1{fill:none;}</style></defs><g id="icons"><g id="tbm"><rect id="margin" class="cls-1" width="24" height="24"/><path id="icon" d="M2,12A10,10,0,1,0,12,2,10,10,0,0,0,2,12ZM16.88,5.66l-1,1,1.42,1.42,1-1A8,8,0,0,1,19.94,11H18.5v2h1.44a8,8,0,0,1-1.64,3.93l-1-1-1.42,1.42,1,1A7.93,7.93,0,0,1,13,19.94V18.5H11v1.43A8,8,0,0,1,7.07,18.3l1-1L6.67,15.86l-1,1A8.07,8.07,0,0,1,4.06,13H5.5V11H4.06a8.07,8.07,0,0,1,1.6-3.88l1,1L8.09,6.72l-1-1A8,8,0,0,1,11,4.07V5.5h2V4.06A7.93,7.93,0,0,1,16.88,5.66ZM13,9.56,14.8,7.73l1.41,1.41L14.38,11H16.9v2H14.38l1.87,1.86-1.42,1.42L13,14.38V16.9H11V14.38L9.14,16.21,7.73,14.8,9.56,13H6.9V11H9.56L7.76,9.18,9.18,7.76,11,9.56V6.9h2Z"/></g></g></svg>