<svg xmlns="http://www.w3.org/2000/svg" viewBox="0 0 24 24"><defs><style>.cls-1{fill:none;}</style></defs><g id="icons"><g id="margin"><rect class="cls-1" width="24" height="24"/></g><g id="template"><g id="margin-2" data-name="margin"><rect class="cls-1" width="24" height="24"/></g><path id="icon" d="M11.55,14.05H2.91A.91.91,0,0,1,2,13.14v-10a.91.91,0,0,1,.91-.91h8.64a.9.9,0,0,1,.9.91v10A.9.9,0,0,1,11.55,14.05ZM3.82,12.23h6.82V4.05H3.82Zm17.27,9.54H2.91A.91.91,0,0,1,2,20.86V16.77a.91.91,0,0,1,.91-.91H21.09a.91.91,0,0,1,.91.91v4.09A.91.91,0,0,1,21.09,21.77ZM3.82,20H20.18V17.68H3.82ZM21.09,7.68H15.18a.91.91,0,0,1-.91-.91V3.14a.91.91,0,0,1,.91-.91h5.91a.91.91,0,0,1,.91.91V6.77A.91.91,0,0,1,21.09,7.68Zm-5-1.82h4.09V4.05H16.09Zm5,8.19H15.18a.91.91,0,0,1-.91-.91V9.5a.91.91,0,0,1,.91-.91h5.91A.91.91,0,0,1,22,9.5v3.64A.91.91,0,0,1,21.09,14.05Zm-5-1.82h4.09V10.41H16.09Z"/></g></g></svg>