<svg xmlns="http://www.w3.org/2000/svg" viewBox="0 0 24 24"><defs><style>.cls-1{fill:none;}.cls-2{fill-rule:evenodd;}</style></defs><g id="icons"><g id="trash-outline"><rect id="margin" class="cls-1" width="24" height="24"/><path id="icon" class="cls-2" d="M9.91,4.37A.49.49,0,0,1,10.39,4h3.22a.49.49,0,0,1,.48.37l.44,1.77h3.9a.5.5,0,0,1,.5.5.49.49,0,0,1-.5.49h-.61l-1,12.42a.49.49,0,0,1-.49.45H7.71a.49.49,0,0,1-.49-.45l-1-12.42H5.57a.49.49,0,0,1-.5-.49.5.5,0,0,1,.5-.5h3.9ZM7.18,7.13,8.17,19h7.66l1-11.88H7.18Zm3.31-1h3L13.22,5H10.78ZM9.28,9.36a.49.49,0,0,1,.53.45l.54,6.44a.49.49,0,0,1-.45.53.5.5,0,0,1-.54-.45L8.83,9.9A.49.49,0,0,1,9.28,9.36Zm5.44,0a.49.49,0,0,1,.45.54l-.53,6.43a.5.5,0,0,1-.54.45.49.49,0,0,1-.45-.53l.54-6.44A.49.49,0,0,1,14.72,9.36ZM12,9.36a.49.49,0,0,1,.49.5v6.43a.49.49,0,0,1-1,0V9.86A.49.49,0,0,1,12,9.36Z"/></g></g></svg>