<svg xmlns="http://www.w3.org/2000/svg" viewBox="0 0 24 24"><defs><style>.cls-1{fill:none;}</style></defs><g id="icons"><g id="tunnel-axis"><rect id="margin" class="cls-1" width="24" height="24"/><path id="icon" d="M12,2A10,10,0,1,0,22,12,10,10,0,0,0,12,2Zm.5,18v-.54h-1V20A8,8,0,0,1,4,12.44h.39v-1H4A8,8,0,0,1,11.5,4v.46h1V4A8,8,0,0,1,20,11.54h-.45v1H20A8,8,0,0,1,12.5,20Zm1.91-6.92,1.78,1.78-1.41,1.41L13,14.46H11L9.22,16.24,7.81,14.83l1.78-1.78v-2L7.71,9.17,9.12,7.76,11,9.64h2l1.88-1.88,1.41,1.41-1.88,1.88ZM11.5,17.42h1v1h-1Zm0-2h1v1h-1Zm1-6.9h-1v-1h1Zm0-2h-1v-1h1Zm4.92,4.94h1v1h-1Zm-2,0h1v1h-1Zm-6.82,1h-1v-1h1Zm-3.1-1h1v1h-1Z"/></g></g></svg>