<svg xmlns="http://www.w3.org/2000/svg" viewBox="0 0 24 24"><defs><style>.cls-1{fill:none;}</style></defs><g id="icons"><g id="user-group"><rect id="margin" class="cls-1" width="24" height="24"/><path id="icon" d="M12,6A2.92,2.92,0,1,1,9.08,8.88,2.92,2.92,0,0,1,12,6M6.17,8a2.49,2.49,0,0,1,1.27.35,4.66,4.66,0,0,0,.94,3.3A2.5,2.5,0,1,1,6.17,8M17.83,8a2.5,2.5,0,1,1-2.21,3.65,4.66,4.66,0,0,0,.94-3.3A2.49,2.49,0,0,1,17.83,8M6.58,16.58c0-1.72,2.43-3.12,5.42-3.12s5.42,1.4,5.42,3.12V18H6.58V16.58M2,18V16.79c0-1.16,1.57-2.13,3.71-2.41a3.34,3.34,0,0,0-.79,2.2V18H2m20,0H19.08V16.58a3.34,3.34,0,0,0-.79-2.2c2.14.28,3.71,1.25,3.71,2.41Z"/></g></g></svg>