<svg xmlns="http://www.w3.org/2000/svg" viewBox="0 0 24 24"><defs><style>.cls-1{fill:none;}</style></defs><g id="icons"><g id="tree-view"><rect id="margin" class="cls-1" width="24" height="24"/><path id="icons-2" data-name="icons" d="M13,13H7v5h6v2H6a1,1,0,0,1-1-1V9H7v2h6Zm7,1H16a1,1,0,0,1-1-1V11a1,1,0,0,1,1-1h4a1,1,0,0,1,1,1v2A1,1,0,0,1,20,14ZM8,7H4A1,1,0,0,1,3,6V4A1,1,0,0,1,4,3H8A1,1,0,0,1,9,4V6A1,1,0,0,1,8,7ZM20,21H16a1,1,0,0,1-1-1V18a1,1,0,0,1,1-1h4a1,1,0,0,1,1,1v2A1,1,0,0,1,20,21Z"/></g><rect id="margin-2" data-name="margin" class="cls-1" x="-1" y="-2" width="24" height="24"/></g></svg>