<svg xmlns="http://www.w3.org/2000/svg" viewBox="0 0 24 24"><defs><style>.cls-1{fill:none;}</style></defs><g id="icons"><g id="view-list"><rect id="margin" class="cls-1" width="24" height="24"/><path id="icon" d="M8.5,5V7a1,1,0,0,0,1,1h10a1,1,0,0,0,1-1V5a1,1,0,0,0-1-1H9.5A1,1,0,0,0,8.5,5Zm1,15h10a1,1,0,0,0,1-1V17a1,1,0,0,0-1-1H9.5a1,1,0,0,0-1,1v2A1,1,0,0,0,9.5,20Zm0-6h10a1,1,0,0,0,1-1V11a1,1,0,0,0-1-1H9.5a1,1,0,0,0-1,1v2A1,1,0,0,0,9.5,14Zm-5-6h2a1,1,0,0,0,1-1V5a1,1,0,0,0-1-1h-2a1,1,0,0,0-1,1V7A1,1,0,0,0,4.5,8Zm0,12h2a1,1,0,0,0,1-1V17a1,1,0,0,0-1-1h-2a1,1,0,0,0-1,1v2A1,1,0,0,0,4.5,20Zm0-6h2a1,1,0,0,0,1-1V11a1,1,0,0,0-1-1h-2a1,1,0,0,0-1,1v2A1,1,0,0,0,4.5,14Z"/></g></g></svg>