<svg xmlns="http://www.w3.org/2000/svg" viewBox="0 0 24 24"><defs><style>.cls-1{fill:none;}</style></defs><g id="icons"><rect id="margin" class="cls-1" width="24" height="24"/><path d="M20,4V14H4V4H20m1-2H3A1,1,0,0,0,2,3V15a1,1,0,0,0,1,1H21a1,1,0,0,0,1-1V3a1,1,0,0,0-1-1ZM6,21V19a1,1,0,0,0-1-1H3a1,1,0,0,0-1,1v2a1,1,0,0,0,1,1H5A1,1,0,0,0,6,21Zm5.33,0V19a1,1,0,0,0-1-1h-2a1,1,0,0,0-1,1v2a1,1,0,0,0,1,1h2A1,1,0,0,0,11.33,21Zm5.34,0V19a1,1,0,0,0-1-1h-2a1,1,0,0,0-1,1v2a1,1,0,0,0,1,1h2A1,1,0,0,0,16.67,21ZM22,21V19a1,1,0,0,0-1-1H19a1,1,0,0,0-1,1v2a1,1,0,0,0,1,1h2A1,1,0,0,0,22,21Z"/></g></svg>