<svg xmlns="http://www.w3.org/2000/svg" viewBox="0 0 24 24"><defs><style>.cls-1{fill:none;}</style></defs><g id="icons"><rect id="margin" class="cls-1" width="24" height="24"/><path d="M20,4V9.47H14.53V4H20M21,2H13.58a1,1,0,0,0-1.05,1v7.37a1,1,0,0,0,1.05,1.05H21A1,1,0,0,0,22,10.42V3.05A1,1,0,0,0,21,2Z"/><path d="M20,14.53V20H14.53V14.53H20m.95-2H13.58a1,1,0,0,0-1.05,1.05V21A1,1,0,0,0,13.58,22H21A1,1,0,0,0,22,21V13.58A1,1,0,0,0,21,12.53Z"/><path d="M9.47,14.53V20H4V14.53H9.47m.95-2H3.05a1,1,0,0,0-1,1.05V21a1,1,0,0,0,1,1.05h7.37A1,1,0,0,0,11.47,21V13.58a1,1,0,0,0-1.05-1.05Z"/><path d="M9.47,4V9.47H4V4H9.47m.95-2H3.05a1,1,0,0,0-1,1v7.37a1,1,0,0,0,1,1.05h7.37a1,1,0,0,0,1.05-1.05V3.05a1,1,0,0,0-1.05-1Z"/></g></svg>