<svg xmlns="http://www.w3.org/2000/svg" viewBox="0 0 24 24"><defs><style>.cls-1{fill:none;}</style></defs><g id="icons-draft"><g id="view_selection" data-name="view selection"><rect id="margin" class="cls-1" width="24" height="24"/><path id="icon" d="M15.15,9.64l3,3,3-3,.9.9-3.9,3.9-3.9-3.9Zm-9.3-2.8h6.5a.58.58,0,0,1,.6.6v1.3a.58.58,0,0,1-.6.6H5.85a.58.58,0,0,1-.6-.6V7.54A.56.56,0,0,1,5.85,6.84Zm-.7,9.7v-1.3a.58.58,0,0,1,.6-.6h6.5a.58.58,0,0,1,.6.6v1.3a.58.58,0,0,1-.6.6H5.85A.56.56,0,0,1,5.15,16.54Zm0-3.9v-1.3a.58.58,0,0,1,.6-.6h6.5a.58.58,0,0,1,.6.6v1.3a.58.58,0,0,1-.6.6H5.85A.56.56,0,0,1,5.15,12.64ZM2,8.84V7.54a.58.58,0,0,1,.6-.6h1.3a.58.58,0,0,1,.6.6v1.3a.58.58,0,0,1-.6.6H2.55A.65.65,0,0,1,2,8.84Zm0,7.7v-1.3a.58.58,0,0,1,.6-.6h1.3a.58.58,0,0,1,.6.6v1.3a.58.58,0,0,1-.6.6H2.55C2.25,17.24,2,16.94,2,16.54Zm0-3.9v-1.3a.58.58,0,0,1,.6-.6h1.3a.58.58,0,0,1,.6.6v1.3a.58.58,0,0,1-.6.6H2.55C2.25,13.34,2,13,2,12.64Z"/></g></g></svg>