<svg xmlns="http://www.w3.org/2000/svg" viewBox="0 0 24 24"><defs><style>.cls-1{fill:none;}</style></defs><g id="icons-draft"><g id="warning"><rect id="margin" class="cls-1" width="24" height="24"/><path id="icon" d="M10.91,3a2.26,2.26,0,0,1,1.63-.21,2.28,2.28,0,0,1,1.34,1l.09.14,7.75,14a2.26,2.26,0,0,1,0,2.16,2.3,2.3,0,0,1-.76.82,2.38,2.38,0,0,1-1.06.35H4.25A2.26,2.26,0,0,1,3.17,21a2.3,2.3,0,0,1-.82-.76A2.21,2.21,0,0,1,2,19.15a2.18,2.18,0,0,1,.2-1.1l.07-.14L10,3.91A2.32,2.32,0,0,1,10.91,3ZM12,16.24a1,1,0,0,0-.39.07,1.08,1.08,0,0,0-.34.21,1.19,1.19,0,0,0-.22.33,1.09,1.09,0,0,0-.08.39,1,1,0,0,0,.08.39,1.06,1.06,0,0,0,.22.33,1.08,1.08,0,0,0,.34.21,1,1,0,0,0,1.08-.23,1,1,0,0,0,.28-.7,1,1,0,0,0-.28-.69,1,1,0,0,0-.69-.31Zm0-8a1,1,0,0,0-.67.25,1,1,0,0,0-.32.63v5.23a1,1,0,0,0,.33.63,1,1,0,0,0,.66.26,1,1,0,0,0,.67-.26,1,1,0,0,0,.32-.63V9.13a1,1,0,0,0-.33-.63A1,1,0,0,0,12,8.25Z"/></g></g></svg>