<svg xmlns="http://www.w3.org/2000/svg" viewBox="0 0 24 24"><defs><style>.cls-1{fill:none;}</style></defs><g id="icons"><g id="widget"><rect id="margin" class="cls-1" width="24" height="24"/><path id="icon" d="M6.21,4.63h1V6.21H8.84v1H7.26V8.84h-1V7.26H4.63v-1H6.21V4.63M22,10.42V3.05A1,1,0,0,0,21,2H13.58a1,1,0,0,0-1.05,1v7.37a1,1,0,0,0,1.05,1.05H21A1,1,0,0,0,22,10.42ZM22,21V13.58A1,1,0,0,0,21,12.53H13.58a1,1,0,0,0-1.05,1.05V21A1,1,0,0,0,13.58,22H21A1,1,0,0,0,22,21ZM11.47,21V13.58a1,1,0,0,0-1.05-1.05H3.05a1,1,0,0,0-1,1.05V21a1,1,0,0,0,1,1.05h7.37A1,1,0,0,0,11.47,21ZM10.42,3.05v7.37H3.05V3.05h7.37m0-1H3.05a1,1,0,0,0-1,1v7.37a1,1,0,0,0,1,1.05h7.37a1,1,0,0,0,1.05-1.05V3.05a1,1,0,0,0-1.05-1Z"/></g></g></svg>